<svg width="942" height="848" viewBox="0 0 942 848" fill="none" xmlns="http://www.w3.org/2000/svg">
<g clip-path="url(#clip0_427_10637)">
<g opacity="0.1">
<path d="M669.104 -131.994C690.027 71.5811 490.523 -67.777 412.437 108.117C340.875 269.314 582.639 469.135 296.808 564.765C101.116 630.238 36.842 711.991 18.6559 888.312" stroke="#1B4DFF" stroke-width="1.18846"/>
<path d="M681.127 -125.173C702.05 78.4026 502.545 -60.9555 424.459 114.939C352.898 276.136 594.661 475.957 308.831 571.587C113.138 637.06 48.8644 718.812 30.6783 895.134" stroke="#1B4DFF" stroke-width="1.18846"/>
<path d="M693.15 -118.352C714.073 85.2239 514.568 -54.1342 436.483 121.76C364.921 282.957 606.685 482.778 320.854 578.408C125.162 643.881 60.8879 725.633 42.7018 901.955" stroke="#1B4DFF" stroke-width="1.18846"/>
<path d="M705.173 -111.53C726.096 92.0455 526.591 -47.3126 448.505 128.581C376.944 289.778 618.707 489.599 332.877 585.23C137.184 650.703 72.9103 732.455 54.7242 908.777" stroke="#1B4DFF" stroke-width="1.18846"/>
<path d="M717.195 -104.709C738.118 98.8668 538.613 -40.4913 460.527 135.403C388.966 296.6 630.73 496.421 344.899 592.051C149.207 657.524 84.9328 739.276 66.7467 915.598" stroke="#1B4DFF" stroke-width="1.18846"/>
<path d="M729.218 -97.8875C750.141 105.688 550.636 -33.67 472.55 142.224C400.989 303.421 642.752 503.242 356.922 598.872C161.229 664.345 96.9552 746.098 78.7692 922.419" stroke="#1B4DFF" stroke-width="1.18846"/>
<path d="M741.241 -91.0703C762.164 112.505 562.659 -26.8529 484.573 149.041C413.012 310.238 654.775 510.059 368.945 605.69C173.252 671.163 108.979 752.915 90.7926 929.236" stroke="#1B4DFF" stroke-width="1.18846"/>
<path d="M753.263 -84.2488C774.185 119.327 574.681 -20.0314 496.595 155.863C425.033 317.06 666.797 516.881 380.967 612.511C185.274 677.984 121 759.736 102.814 936.058" stroke="#1B4DFF" stroke-width="1.18846"/>
<path d="M765.287 -77.4231C786.21 126.152 586.705 -13.2057 508.619 162.688C437.058 323.885 678.821 523.706 392.991 619.337C197.298 684.81 133.025 766.562 114.838 942.884" stroke="#1B4DFF" stroke-width="1.18846"/>
<path d="M777.309 -70.6018C798.231 132.974 598.727 -6.38441 520.641 169.51C449.079 330.707 690.843 530.528 405.012 626.158C209.32 691.631 145.046 773.383 126.86 949.705" stroke="#1B4DFF" stroke-width="1.18846"/>
<path d="M789.332 -63.7847C810.255 139.791 610.75 0.432734 532.664 176.327C461.103 337.524 702.866 537.345 417.036 632.975C221.343 698.448 157.069 780.2 138.883 956.522" stroke="#1B4DFF" stroke-width="1.18846"/>
<path d="M801.354 -56.9634C822.277 146.612 622.773 7.25402 544.687 183.148C473.125 344.345 714.889 544.166 429.058 639.796C233.366 705.269 169.092 787.022 150.906 963.343" stroke="#1B4DFF" stroke-width="1.18846"/>
<path d="M813.378 -50.1418C834.301 153.434 634.796 14.0756 556.71 189.97C485.149 351.167 726.912 550.988 441.082 646.618C245.389 712.091 181.115 793.843 162.929 970.165" stroke="#1B4DFF" stroke-width="1.18846"/>
<path d="M825.4 -43.3206C846.323 160.255 646.818 20.8968 568.733 196.791C497.171 357.988 738.935 557.809 453.104 653.439C257.412 718.912 193.138 800.664 174.952 976.986" stroke="#1B4DFF" stroke-width="1.18846"/>
<path d="M837.422 -36.499C858.345 167.076 658.84 27.7184 580.754 203.612C509.193 364.809 750.956 564.63 465.126 660.261C269.433 725.734 205.159 807.486 186.973 983.808" stroke="#1B4DFF" stroke-width="1.18846"/>
<path d="M849.445 -29.6777C870.368 173.898 670.863 34.5397 592.777 210.434C521.216 371.631 762.98 571.452 477.149 667.082C281.457 732.555 217.183 814.307 198.997 990.629" stroke="#1B4DFF" stroke-width="1.18846"/>
<path d="M861.469 -22.8562C882.392 180.719 682.887 41.3612 604.801 217.255C533.24 378.452 775.003 578.273 489.173 673.904C293.48 739.377 229.206 821.129 211.02 997.451" stroke="#1B4DFF" stroke-width="1.18846"/>
<path d="M873.491 -16.0349C894.414 187.541 694.909 48.1825 616.823 224.077C545.262 385.274 787.025 585.094 501.195 680.725C305.502 746.198 241.229 827.95 223.043 1004.27" stroke="#1B4DFF" stroke-width="1.18846"/>
<path d="M885.514 -9.21338C906.436 194.362 706.932 55.004 628.846 230.898C557.284 392.095 799.048 591.916 513.218 687.546C317.525 753.019 253.251 834.772 235.065 1011.09" stroke="#1B4DFF" stroke-width="1.18846"/>
<path d="M897.536 -2.39209C918.459 201.183 718.954 61.8253 640.868 237.719C569.307 398.916 811.07 598.737 525.24 694.368C329.547 759.841 265.274 841.593 247.088 1017.91" stroke="#1B4DFF" stroke-width="1.18846"/>
</g>
</g>
<defs>
<clipPath id="clip0_427_10637">
<rect width="942" height="848" fill="white"/>
</clipPath>
</defs>
</svg>
