<svg width="50" height="50" viewBox="0 0 50 50" fill="none" xmlns="http://www.w3.org/2000/svg">
  <g clip-path="url(#clip0_531_151)">
  <path opacity="0.5" d="M48.9998 1H1V48.9998H48.9998V1Z" stroke="#0040BC" stroke-miterlimit="10"/>
  <path d="M44.5098 1H49.002V5.49225" stroke="white" stroke-width="2" stroke-miterlimit="10"/>
  <path d="M1 5.49225V1H5.49225" stroke="white" stroke-width="2" stroke-miterlimit="10"/>
  <path d="M1 44.5078V49.0001H5.49225" stroke="white" stroke-width="2" stroke-miterlimit="10"/>
  <path d="M49.002 44.5078V49.0001H44.5098" stroke="white" stroke-width="2" stroke-miterlimit="10"/>
  <path fill-rule="evenodd" clip-rule="evenodd" d="M40 17.7971L33.2029 11L26.4059 17.7971H31.8435V27.3129H34.5624V17.7971H40ZM37.1882 32.674V28.5958H34.4694V32.674H12.7188V17.7205H23.5941V15.0017H12.7188C11.2235 15.0017 10 16.2251 10 17.7205V32.674C10 34.1694 11.2235 35.3928 12.7188 35.3928H16.7971L15.4376 36.7523V39.4711H31.7506V36.7523L30.3912 35.3928H34.4694C35.9648 35.3928 37.1882 34.1694 37.1882 32.674Z" fill="#0040BC"/>
  </g>
  <defs>
  <clipPath id="clip0_531_151">
  <rect width="50" height="50" fill="white"/>
  </clipPath>
  </defs>
  </svg>
  