<svg width="50" height="50" viewBox="0 0 50 50" fill="none" xmlns="http://www.w3.org/2000/svg">
  <g clip-path="url(#clip0_531_222)">
  <path d="M32 32V35H17.5C16.3065 35 15.1619 34.5259 14.318 33.682C13.4741 32.8381 13 31.6935 13 30.5C13 29.3065 13.4741 28.1619 14.318 27.318C15.1619 26.4741 16.3065 26 17.5 26H18V24H17.5C15.7761 24 14.1228 24.6848 12.9038 25.9038C11.6848 27.1228 11 28.7761 11 30.5C11 32.2239 11.6848 33.8772 12.9038 35.0962C14.1228 36.3152 15.7761 37 17.5 37H32V40H40V32H32ZM38 38H34V34H38V38Z" fill="#0040BC"/>
  <path d="M30 31H28V28H22V31H20V28C20.0005 27.4697 20.2114 26.9613 20.5864 26.5864C20.9613 26.2114 21.4697 26.0005 22 26H28C28.5303 26.0005 29.0387 26.2114 29.4136 26.5864C29.7886 26.9613 29.9995 27.4697 30 28V31ZM25 25C24.4067 25 23.8266 24.8241 23.3333 24.4944C22.8399 24.1648 22.4554 23.6962 22.2284 23.1481C22.0013 22.5999 21.9419 21.9967 22.0576 21.4147C22.1734 20.8328 22.4591 20.2982 22.8787 19.8787C23.2982 19.4591 23.8328 19.1734 24.4147 19.0576C24.9967 18.9419 25.5999 19.0013 26.1481 19.2284C26.6962 19.4554 27.1648 19.8399 27.4944 20.3333C27.8241 20.8266 28 21.4067 28 22C27.9992 22.7954 27.6829 23.558 27.1204 24.1204C26.558 24.6829 25.7954 24.9992 25 25ZM25 21C24.8022 21 24.6089 21.0587 24.4444 21.1685C24.28 21.2784 24.1518 21.4346 24.0761 21.6173C24.0004 21.8 23.9806 22.0011 24.0192 22.1951C24.0578 22.3891 24.153 22.5673 24.2929 22.7071C24.4327 22.847 24.6109 22.9422 24.8049 22.9808C24.9989 23.0194 25.2 22.9996 25.3827 22.9239C25.5654 22.8482 25.7216 22.72 25.8315 22.5556C25.9414 22.3911 26 22.1978 26 22C25.9997 21.7349 25.8943 21.4807 25.7068 21.2932C25.5193 21.1057 25.2651 21.0003 25 21Z" fill="#0040BC"/>
  <path d="M32.5 13H18V10H10V18H18V15H32.5C33.6935 15 34.8381 15.4741 35.682 16.318C36.5259 17.1619 37 18.3065 37 19.5C37 20.6935 36.5259 21.8381 35.682 22.682C34.8381 23.5259 33.6935 24 32.5 24H32V26H32.5C34.2239 26 35.8772 25.3152 37.0962 24.0962C38.3152 22.8772 39 21.2239 39 19.5C39 17.7761 38.3152 16.1228 37.0962 14.9038C35.8772 13.6848 34.2239 13 32.5 13V13ZM16 16H12V12H16V16Z" fill="#0040BC"/>
  <path opacity="0.5" d="M48.9998 1H1V48.9998H48.9998V1Z" stroke="#0040BC" stroke-miterlimit="10"/>
  <path d="M44.5098 1H49.002V5.49225" stroke="white" stroke-width="2" stroke-miterlimit="10"/>
  <path d="M1 5.49225V1H5.49225" stroke="white" stroke-width="2" stroke-miterlimit="10"/>
  <path d="M1 44.5078V49.0001H5.49225" stroke="white" stroke-width="2" stroke-miterlimit="10"/>
  <path d="M49.002 44.5078V49.0001H44.5098" stroke="white" stroke-width="2" stroke-miterlimit="10"/>
  </g>
  <defs>
  <clipPath id="clip0_531_222">
  <rect width="50" height="50" fill="white"/>
  </clipPath>
  </defs>
  </svg>
  