<svg width="50" height="50" viewBox="0 0 50 50" fill="none" xmlns="http://www.w3.org/2000/svg">
  <g clip-path="url(#clip0_531_195)">
  <path opacity="0.5" d="M48.9998 1H1V48.9998H48.9998V1Z" stroke="#0040BC" stroke-miterlimit="10"/>
  <path d="M44.5098 1H49.002V5.49225" stroke="white" stroke-width="2" stroke-miterlimit="10"/>
  <path d="M1 5.49225V1H5.49225" stroke="white" stroke-width="2" stroke-miterlimit="10"/>
  <path d="M1 44.5078V49.0001H5.49225" stroke="white" stroke-width="2" stroke-miterlimit="10"/>
  <path d="M49.002 44.5078V49.0001H44.5098" stroke="white" stroke-width="2" stroke-miterlimit="10"/>
  <path d="M28.2526 27.6002L30.3526 23.9629C30.4876 23.7375 30.4276 23.4519 30.2326 23.2866L28.0126 21.5431C28.0576 21.2124 28.0876 20.8667 28.0876 20.521C28.0876 20.1754 28.0576 19.8297 28.0126 19.484L30.2326 17.7405C30.4276 17.5752 30.4876 17.2896 30.3526 17.0641L28.2526 13.4269C28.1176 13.2014 27.8476 13.1112 27.6076 13.2014L24.9976 14.2535C24.4577 13.8327 23.8727 13.487 23.2277 13.2164L22.8377 10.4359C22.8125 10.3143 22.7468 10.2049 22.6514 10.1257C22.556 10.0465 22.4366 10.0022 22.3127 10H18.1127C17.8577 10 17.6327 10.1954 17.5877 10.4509L17.1977 13.2315C16.5677 13.502 15.9677 13.8477 15.4277 14.2685L12.8178 13.2164C12.5778 13.1263 12.3078 13.2164 12.1728 13.4419L10.0728 17.0792C9.93781 17.3046 9.99781 17.5902 10.1928 17.7555L12.4128 19.499C12.3678 19.8297 12.3378 20.1754 12.3378 20.521C12.3378 20.8667 12.3678 21.2124 12.4128 21.5581L10.1928 23.3016C9.99781 23.4669 9.93781 23.7525 10.0728 23.978L12.1728 27.6152C12.3078 27.8407 12.5778 27.9309 12.8178 27.8407L15.4277 26.7886C15.9677 27.2094 16.5527 27.5551 17.1977 27.8257L17.5877 30.6062C17.6327 30.8467 17.8577 31.0421 18.1127 31.0421H22.3127C22.5677 31.0421 22.7927 30.8467 22.8377 30.5912L23.2277 27.8106C23.8577 27.5401 24.4577 27.1944 24.9976 26.7735L27.6076 27.8257C27.8476 27.9158 28.1176 27.8257 28.2526 27.6002V27.6002ZM20.2127 23.5271C18.5627 23.5271 17.2127 22.1743 17.2127 20.521C17.2127 18.8677 18.5627 17.515 20.2127 17.515C21.8627 17.515 23.2127 18.8677 23.2127 20.521C23.2127 22.1743 21.8627 23.5271 20.2127 23.5271ZM39.8775 35.0551L38.4375 33.9429C38.4675 33.7325 38.4975 33.507 38.4975 33.2816C38.4975 33.0561 38.4825 32.8307 38.4375 32.6202L39.8625 31.508C39.9825 31.4028 40.0275 31.2224 39.9375 31.0721L38.5875 28.7425C38.5125 28.5922 38.3325 28.5471 38.1675 28.5922L36.5025 29.2685C36.1575 28.998 35.7825 28.7725 35.3625 28.6072L35.1075 26.8337C35.1016 26.7533 35.0661 26.6781 35.0079 26.6225C34.9497 26.567 34.8729 26.5351 34.7925 26.5331H32.1076C31.9426 26.5331 31.7926 26.6533 31.7776 26.8186L31.5226 28.5922C31.1176 28.7725 30.7276 28.983 30.3826 29.2535L28.7176 28.5772C28.6412 28.5483 28.557 28.5476 28.4801 28.5752C28.4032 28.6027 28.3385 28.6566 28.2976 28.7275L26.9476 31.0571C26.8726 31.2074 26.8876 31.3878 27.0226 31.493L28.4476 32.6052C28.3858 33.0439 28.3858 33.4892 28.4476 33.9279L27.0226 35.0401C26.9026 35.1453 26.8576 35.3257 26.9476 35.476L28.2976 37.8056C28.3726 37.9559 28.5526 38.001 28.7176 37.9559L30.3826 37.2796C30.7276 37.5501 31.1026 37.7756 31.5226 37.9409L31.7776 39.7144C31.8076 39.8798 31.9426 40 32.1076 40H34.7925C34.9575 40 35.1075 39.8798 35.1225 39.7144L35.3775 37.9409C35.7825 37.7605 36.1725 37.5501 36.5025 37.2796L38.1825 37.9559C38.3325 38.016 38.5125 37.9559 38.6025 37.8056L39.9525 35.476C40.0425 35.3407 39.9975 35.1603 39.8775 35.0551V35.0551ZM33.4426 35.2956C32.9053 35.2954 32.3901 35.0813 32.0104 34.7005C31.6306 34.3197 31.4174 33.8034 31.4176 33.265C31.4178 32.7267 31.6314 32.2105 32.0114 31.83C32.3915 31.4494 32.9068 31.2358 33.4441 31.236C33.9813 31.2362 34.4965 31.4502 34.8762 31.831C35.256 32.2118 35.4692 32.7282 35.469 33.2665C35.4688 33.8049 35.2552 34.3211 34.8752 34.7016C34.4951 35.0821 33.9798 35.2958 33.4426 35.2956V35.2956Z" fill="#0040BC"/>
  </g>
  <defs>
  <clipPath id="clip0_531_195">
  <rect width="50" height="50" fill="white"/>
  </clipPath>
  </defs>
  </svg>
  