<svg width="50" height="50" viewBox="0 0 50 50" fill="none" xmlns="http://www.w3.org/2000/svg">
  <g clip-path="url(#clip0_531_209)">
  <path fill-rule="evenodd" clip-rule="evenodd" d="M24.1572 9.92441C24.414 9.77772 24.7046 9.70056 25.0004 9.70056C25.2962 9.70056 25.5868 9.77772 25.8436 9.92441L28.8186 11.6244C29.018 11.7322 29.1938 11.8787 29.3357 12.0554C29.4776 12.2321 29.5828 12.4354 29.645 12.6533C29.7072 12.8712 29.7252 13.0994 29.698 13.3244C29.6707 13.5494 29.5988 13.7666 29.4863 13.9634C29.3739 14.1602 29.2232 14.3325 29.0432 14.4702C28.8632 14.6079 28.6575 14.7082 28.4382 14.7652C28.2189 14.8223 27.9903 14.8349 27.766 14.8023C27.5418 14.7698 27.3263 14.6927 27.1322 14.5756L25.0004 13.3584L22.8686 14.5756C22.6745 14.6927 22.459 14.7698 22.2348 14.8023C22.0105 14.8349 21.7819 14.8223 21.5626 14.7652C21.3433 14.7082 21.1376 14.6079 20.9576 14.4702C20.7775 14.3325 20.6269 14.1602 20.5145 13.9634C20.402 13.7666 20.3301 13.5494 20.3028 13.3244C20.2756 13.0994 20.2936 12.8712 20.3558 12.6533C20.418 12.4354 20.5232 12.2321 20.6651 12.0554C20.807 11.8787 20.9828 11.7322 21.1822 11.6244L24.1572 9.92441V9.92441ZM17.551 15.6568C17.7745 16.0482 17.8334 16.5123 17.7148 16.9471C17.5963 17.382 17.3099 17.7519 16.9186 17.9756L16.5276 18.2L16.9186 18.4244C17.118 18.5322 17.2938 18.6787 17.4357 18.8554C17.5776 19.0321 17.6828 19.2354 17.745 19.4533C17.8072 19.6712 17.8252 19.8994 17.798 20.1244C17.7707 20.3494 17.6988 20.5666 17.5863 20.7634C17.4739 20.9602 17.3232 21.1325 17.1432 21.2702C16.9632 21.4079 16.7575 21.5082 16.5382 21.5652C16.3189 21.6223 16.0903 21.6349 15.866 21.6023C15.6418 21.5698 15.4263 21.4927 15.2322 21.3756L14.8004 21.1291V21.6C14.8004 22.0509 14.6213 22.4833 14.3025 22.8021C13.9837 23.1209 13.5513 23.3 13.1004 23.3C12.6495 23.3 12.2171 23.1209 11.8983 22.8021C11.5795 22.4833 11.4004 22.0509 11.4004 21.6V18.2C11.3994 17.8946 11.4811 17.5947 11.6367 17.3319C11.7924 17.0691 12.0161 16.8534 12.2844 16.7074L15.2322 15.0244C15.6236 14.8009 16.0877 14.742 16.5225 14.8606C16.9573 14.9792 17.3273 15.2656 17.551 15.6568V15.6568ZM32.4498 15.6568C32.6735 15.2656 33.0435 14.9792 33.4783 14.8606C33.9131 14.742 34.3772 14.8009 34.7686 15.0244L37.7147 16.7074C37.9826 16.854 38.2061 17.0699 38.3619 17.3324C38.5177 17.595 38.6001 17.8947 38.6004 18.2V21.6C38.6004 22.0509 38.4213 22.4833 38.1025 22.8021C37.7837 23.1209 37.3513 23.3 36.9004 23.3C36.4495 23.3 36.0171 23.1209 35.6983 22.8021C35.3795 22.4833 35.2004 22.0509 35.2004 21.6V21.1291L34.7686 21.3756C34.5745 21.4927 34.359 21.5698 34.1348 21.6023C33.9105 21.6349 33.6819 21.6223 33.4626 21.5652C33.2433 21.5082 33.0376 21.4079 32.8575 21.2702C32.6775 21.1325 32.5269 20.9602 32.4145 20.7634C32.302 20.5666 32.2301 20.3494 32.2028 20.1244C32.1756 19.8994 32.1936 19.6712 32.2558 19.4533C32.318 19.2354 32.4232 19.0321 32.5651 18.8554C32.707 18.6787 32.8828 18.5322 33.0822 18.4244L33.4732 18.2L33.0822 17.9756C32.6909 17.7519 32.4045 17.382 32.2859 16.9471C32.1674 16.5123 32.2263 16.0482 32.4498 15.6568V15.6568ZM20.5498 22.4568C20.7735 22.0656 21.1435 21.7792 21.5783 21.6606C22.0131 21.542 22.4772 21.6009 22.8686 21.8244L25.0004 23.0416L27.1322 21.8244C27.3263 21.7073 27.5418 21.6303 27.766 21.5977C27.9903 21.5651 28.2189 21.5777 28.4382 21.6348C28.6575 21.6918 28.8632 21.7921 29.0432 21.9298C29.2232 22.0675 29.3739 22.2398 29.4863 22.4366C29.5988 22.6334 29.6707 22.8507 29.698 23.0756C29.7252 23.3006 29.7072 23.5288 29.645 23.7467C29.5828 23.9647 29.4776 24.1679 29.3357 24.3446C29.1938 24.5213 29.018 24.6679 28.8186 24.7756L26.7004 25.986V28.4C26.7004 28.8509 26.5213 29.2833 26.2025 29.6021C25.8837 29.9209 25.4513 30.1 25.0004 30.1C24.5495 30.1 24.1171 29.9209 23.7983 29.6021C23.4795 29.2833 23.3004 28.8509 23.3004 28.4V25.986L21.1822 24.7756C20.7909 24.5519 20.5045 24.182 20.3859 23.7471C20.2674 23.3123 20.3263 22.8482 20.5498 22.4568V22.4568ZM13.1004 26.7C13.5513 26.7 13.9837 26.8791 14.3025 27.1979C14.6213 27.5167 14.8004 27.9491 14.8004 28.4V30.814L16.9186 32.0244C17.118 32.1322 17.2938 32.2787 17.4357 32.4554C17.5776 32.6321 17.6828 32.8354 17.745 33.0533C17.8072 33.2712 17.8252 33.4994 17.798 33.7244C17.7707 33.9494 17.6988 34.1666 17.5863 34.3634C17.4739 34.5602 17.3232 34.7325 17.1432 34.8702C16.9632 35.0079 16.7575 35.1082 16.5382 35.1652C16.3189 35.2223 16.0903 35.2349 15.866 35.2023C15.6418 35.1698 15.4263 35.0927 15.2322 34.9756L12.2572 33.2756C11.997 33.127 11.7807 32.9122 11.6303 32.6531C11.4798 32.394 11.4005 32.0997 11.4004 31.8V28.4C11.4004 27.9491 11.5795 27.5167 11.8983 27.1979C12.2171 26.8791 12.6495 26.7 13.1004 26.7V26.7ZM36.9004 26.7C37.3513 26.7 37.7837 26.8791 38.1025 27.1979C38.4213 27.5167 38.6004 27.9491 38.6004 28.4V31.8C38.6003 32.0997 38.521 32.394 38.3705 32.6531C38.2201 32.9122 38.0038 33.127 37.7436 33.2756L34.7686 34.9756C34.5745 35.0927 34.359 35.1698 34.1348 35.2023C33.9105 35.2349 33.6819 35.2223 33.4626 35.1652C33.2433 35.1082 33.0376 35.0079 32.8575 34.8702C32.6775 34.7325 32.5269 34.5602 32.4145 34.3634C32.302 34.1666 32.2301 33.9494 32.2028 33.7244C32.1756 33.4994 32.1936 33.2712 32.2558 33.0533C32.318 32.8354 32.4232 32.6321 32.5651 32.4554C32.707 32.2787 32.8828 32.1322 33.0822 32.0244L35.2004 30.814V28.4C35.2004 27.9491 35.3795 27.5167 35.6983 27.1979C36.0171 26.8791 36.4495 26.7 36.9004 26.7ZM20.5498 36.0568C20.7735 35.6656 21.1435 35.3792 21.5783 35.2606C22.0131 35.142 22.4772 35.2009 22.8686 35.4244L23.3004 35.6709V35.2C23.3004 34.7491 23.4795 34.3167 23.7983 33.9979C24.1171 33.6791 24.5495 33.5 25.0004 33.5C25.4513 33.5 25.8837 33.6791 26.2025 33.9979C26.5213 34.3167 26.7004 34.7491 26.7004 35.2V35.6709L27.1322 35.4244C27.3263 35.3073 27.5418 35.2303 27.766 35.1977C27.9903 35.1651 28.2189 35.1777 28.4382 35.2348C28.6575 35.2918 28.8632 35.3921 29.0432 35.5298C29.2232 35.6675 29.3739 35.8398 29.4863 36.0366C29.5988 36.2334 29.6707 36.4507 29.698 36.6757C29.7252 36.9006 29.7072 37.1288 29.645 37.3467C29.5828 37.5647 29.4776 37.7679 29.3357 37.9446C29.1938 38.1213 29.018 38.2679 28.8186 38.3756L25.8691 40.062C25.6066 40.2191 25.3064 40.3021 25.0004 40.3021C24.6944 40.3021 24.3942 40.2191 24.1317 40.062L21.1822 38.3756C20.7909 38.1519 20.5045 37.782 20.3859 37.3471C20.2674 36.9123 20.3263 36.4482 20.5498 36.0568V36.0568Z" fill="#0040BC"/>
  <path opacity="0.5" d="M48.9998 1H1V48.9998H48.9998V1Z" stroke="#0040BC" stroke-miterlimit="10"/>
  <path d="M44.5098 1H49.002V5.49225" stroke="white" stroke-width="2" stroke-miterlimit="10"/>
  <path d="M1 5.49225V1H5.49225" stroke="white" stroke-width="2" stroke-miterlimit="10"/>
  <path d="M1 44.5078V49.0001H5.49225" stroke="white" stroke-width="2" stroke-miterlimit="10"/>
  <path d="M49.002 44.5078V49.0001H44.5098" stroke="white" stroke-width="2" stroke-miterlimit="10"/>
  </g>
  <defs>
  <clipPath id="clip0_531_209">
  <rect width="50" height="50" fill="white"/>
  </clipPath>
  </defs>
  </svg>
  