<svg width="194" height="26" viewBox="0 0 194 26" fill="none" xmlns="http://www.w3.org/2000/svg">
<path d="M11.0708 20.9162C8.05811 20.9162 6.64249 19.8994 6.64249 17.4665C6.64249 16.9218 6.71509 16.3408 6.86028 15.6872L10.1634 0.290501H3.62978L0.254084 16.014C0.108893 16.7402 0 17.5028 0 18.338C0 23.4581 3.99276 26 10.4901 26C18.3304 26 22.1779 24.0028 23.9202 16.014L27.2959 0.290501H20.7623L17.4592 15.6872C16.697 19.3184 14.7006 20.9162 11.0708 20.9162Z" fill="white"/>
<path d="M59.99 0.290501H54.1098L50.5163 17.2486C50.48 17.4302 50.3711 17.8659 49.9718 17.8659C49.6452 17.8659 49.5726 17.5028 49.4637 17.2486L43.039 2.17877C42.313 0.472065 40.6796 0 38.8284 0C36.1061 0 33.8556 0.871508 33.166 3.99441L28.5561 25.7095H34.4364L38.0299 8.86034C38.1751 8.17039 38.4654 8.13408 38.6106 8.13408C38.7921 8.13408 38.9736 8.35196 39.1914 8.7514L45.5435 23.676C46.4147 25.7458 48.1569 26 49.8992 26C53.6379 26 54.9083 24.0391 55.3802 21.933L59.99 0.290501Z" fill="white"/>
<path d="M67.8357 25.7095L73.2441 0.290501H66.7105L61.3021 25.7095H67.8357Z" fill="white"/>
<path d="M104.498 8.17039C104.788 7.6257 105.042 7.29888 105.224 7.29888C105.405 7.29888 105.478 7.44413 105.478 7.73464C105.478 7.87989 105.478 7.98883 105.442 8.09777L101.485 25.7095H108.019L112.665 3.92179C112.738 3.59497 112.774 3.26816 112.774 2.94134C112.774 1.34358 111.503 0 108.019 0C105.514 0 103.227 0.871508 101.594 3.74022L93.2819 18.4106C93.0278 18.8827 92.7011 19.4637 92.4107 19.4637C92.1204 19.4637 92.0115 18.8827 91.9026 18.4106L89.7247 3.74022C89.2891 0.835193 87.4743 0 84.8971 0C83.0096 0 79.888 0.50838 79.1984 3.92179L74.5522 25.7095H81.0858L84.643 8.09777C84.6793 7.9162 84.7882 7.29888 85.1875 7.29888C85.4416 7.29888 85.4416 7.73464 85.5505 8.17039L87.6557 22.7682C87.9461 24.6927 88.3454 26 91.2492 26C94.153 26 95.0242 24.6927 96.1857 22.7682L104.498 8.17039Z" fill="white"/>
<path d="M141.457 0.290501H123.998C121.239 0.290501 119.896 1.45251 119.316 4.21229L115.577 21.824C115.504 22.1872 115.468 22.5503 115.468 22.8771C115.468 24.6201 116.557 25.7095 118.59 25.7095H136.194L137.247 20.771H124.034C123.018 20.771 122.619 20.5168 122.619 19.7542C122.619 19.5726 122.655 19.3184 122.691 19.0642L123.526 15.1788H137.973L138.989 10.4581H124.542L125.268 6.93575C125.559 5.6648 126.067 5.22905 127.337 5.22905H140.405L141.457 0.290501Z" fill="white"/>
<path d="M156.5 25.7095L160.82 5.3743H170.257L171.346 0.290501H145.938L144.849 5.3743H154.286L149.967 25.7095H156.5Z" fill="white"/>
<path d="M165.071 25.7095H172.221L175.742 19.8994H186.45L187.503 25.7095H194L189.318 2.97765C188.773 0.50838 187.285 0 184.962 0C181.877 0 180.57 0.980445 179.336 2.97765L165.071 25.7095ZM183.328 6.89944C183.583 6.5 183.8 6.10056 184.054 6.10056C184.308 6.10056 184.272 6.5 184.381 6.89944L185.906 14.9609H178.392L183.328 6.89944Z" fill="white"/>
</svg>
