<svg width="590" height="553" viewBox="0 0 590 553" fill="none" xmlns="http://www.w3.org/2000/svg">
<g clip-path="url(#clip0_509_10718)">
<path d="M154.637 70.1059C147.454 60.4903 133.765 58.452 124.792 66.4239C113.443 76.5073 103.012 87.5794 93.6229 99.5092C86.1998 108.941 89.0501 122.484 99.0766 129.082C109.103 135.679 122.497 132.816 130.083 123.514C136.494 115.651 143.46 108.258 150.927 101.389C159.76 93.2627 161.821 79.7216 154.637 70.1059Z" fill="#FCDD6E"/>
<path d="M318.601 24.6569C319.809 12.7154 311.1 1.9586 299.099 1.76646C255.603 1.07008 212.633 11.4626 174.262 31.9588C163.675 37.6138 160.844 51.1617 167.375 61.2315C173.907 71.3013 187.324 74.0594 198.007 68.5886C227.939 53.2604 261.089 45.2431 294.717 45.1987C306.72 45.1829 317.393 36.5985 318.601 24.6569Z" fill="#FF8B8B"/>
<path d="M86.8532 149.923C76.2011 144.392 62.9891 148.514 58.3803 159.597C47.4128 185.969 40.9113 214.039 39.1945 242.651C37.4776 271.263 40.5761 299.909 48.3114 327.403C51.562 338.957 64.1862 344.631 75.4232 340.413C86.6603 336.195 92.2344 323.684 89.1844 312.075C83.4727 290.336 81.2295 267.783 82.5813 245.254C83.9331 222.726 88.8569 200.603 97.1272 179.702C101.543 168.542 97.5054 155.453 86.8532 149.923Z" fill="#206DE0"/>
<path d="M398.105 468.655C403.381 479.436 416.456 483.976 426.751 477.805C456.522 459.961 482.361 436.25 502.694 408.12C509.725 398.392 506.323 384.976 496.035 378.794C485.747 372.613 472.481 376.023 465.282 385.627C449.484 406.705 429.906 424.67 407.55 438.602C397.364 444.95 392.828 457.875 398.105 468.655Z" fill="#F578F8"/>
<path d="M505.155 362.121C515.91 367.449 529.041 363.077 533.44 351.91C536.877 343.183 539.832 334.274 542.293 325.223C545.441 313.64 537.526 302.287 525.719 300.131C513.912 297.975 502.701 305.844 499.352 317.369C497.865 322.488 496.187 327.548 494.32 332.541C490.115 343.783 494.4 356.792 505.155 362.121Z" fill="#FFD480"/>
<path d="M478.856 112.387C488.265 104.935 489.915 91.1931 481.694 82.449C451.583 50.4264 413.729 26.6812 371.793 13.5102C360.342 9.91369 348.689 17.3809 346.075 29.0953C343.461 40.8097 350.889 52.3184 362.276 56.1127C394.537 66.8627 423.761 85.1943 447.48 109.56C455.853 118.161 469.447 119.839 478.856 112.387Z" fill="#6EDAFC"/>
<path d="M529.012 273.638C540.988 274.438 551.442 265.367 551.225 253.367C550.468 211.45 539.433 170.347 519.096 133.687C513.273 123.191 499.682 120.575 489.717 127.266C479.752 133.956 477.208 147.415 482.847 158.01C498.035 186.541 506.525 218.166 507.669 250.468C508.093 262.463 517.036 272.838 529.012 273.638Z" fill="#65FFBE"/>
<path d="M151.607 443.592C144.268 453.09 145.974 466.825 156.06 473.332C186.683 493.092 221.245 506.139 257.461 511.502C293.678 516.865 330.537 514.394 365.573 504.357C377.111 501.052 382.724 488.401 378.454 477.184C374.183 465.967 361.645 460.453 350.051 463.558C322.024 471.063 292.68 472.778 263.828 468.506C234.976 464.233 207.388 454.088 182.74 438.782C172.543 432.45 158.945 434.094 151.607 443.592Z" fill="#8CFFF8"/>
<path d="M83.7485 359.876C72.9375 365.089 68.3211 378.137 74.4317 388.468C83.5459 403.876 94.2499 418.287 106.368 431.465C114.492 440.3 128.317 439.65 136.432 430.807C144.547 421.963 143.86 408.283 135.89 399.309C127.654 390.036 120.244 380.06 113.746 369.495C107.457 359.272 94.5595 354.662 83.7485 359.876Z" fill="#BBFF9B"/>
<path d="M295.083 553L295.074 520.912C296.769 520.912 298.487 520.893 300.178 520.864L300.798 552.948C298.906 552.981 296.983 553 295.083 553ZM289.367 552.948C287.475 552.91 285.552 552.857 283.655 552.786L284.869 520.721C286.565 520.783 288.282 520.835 289.969 520.864L289.367 552.948ZM306.496 552.776L305.265 520.712C306.951 520.645 308.669 520.564 310.365 520.469L312.208 552.505C310.311 552.614 308.388 552.705 306.496 552.776ZM277.944 552.515C276.057 552.405 274.138 552.277 272.242 552.134L274.682 520.136C276.374 520.264 278.087 520.379 279.774 520.474L277.944 552.515ZM317.914 552.12L315.451 520.126C317.134 519.998 318.842 519.85 320.533 519.688L323.612 551.629C321.716 551.81 319.802 551.977 317.914 552.12ZM266.544 551.644C264.647 551.463 262.733 551.258 260.85 551.044L264.531 519.165C266.205 519.36 267.914 519.541 269.6 519.698L266.544 551.644ZM329.292 551.025L325.607 519.146C327.271 518.951 328.971 518.741 330.658 518.513L334.968 550.311C333.081 550.568 331.166 550.806 329.292 551.025ZM255.179 550.33C253.301 550.078 251.396 549.802 249.517 549.511L254.425 517.799C256.103 518.061 257.798 518.303 259.467 518.527L255.179 550.33ZM340.635 549.488L335.709 517.78C337.373 517.523 339.064 517.242 340.737 516.947L346.275 548.555C344.401 548.883 342.5 549.197 340.635 549.488ZM243.873 548.578C242.003 548.25 240.111 547.903 238.246 547.536L244.39 516.038C246.05 516.362 247.737 516.676 249.401 516.966L243.873 548.578ZM351.906 547.512L345.748 516.019C347.412 515.695 349.09 515.348 350.741 514.991L357.514 546.356C355.658 546.756 353.771 547.146 351.906 547.512ZM232.642 546.389C230.786 545.989 228.907 545.566 227.06 545.128L234.427 513.896C236.073 514.286 237.742 514.662 239.397 515.019L232.642 546.389ZM363.092 545.095L355.712 513.863C357.362 513.472 359.027 513.063 360.66 512.644L368.651 543.724C366.813 544.195 364.943 544.657 363.092 545.095ZM221.505 543.767C219.671 543.295 217.81 542.8 215.977 542.291L224.552 511.369C226.19 511.821 227.845 512.264 229.474 512.682L221.505 543.767ZM374.175 542.248L365.581 511.331C367.21 510.879 368.857 510.403 370.476 509.917L379.677 540.659C377.856 541.206 376.005 541.739 374.175 542.248ZM210.475 540.706C208.654 540.164 206.812 539.593 205.005 539.017L214.785 508.456C216.391 508.97 218.029 509.475 219.653 509.96L210.475 540.706ZM385.138 538.969L375.34 508.413C376.955 507.894 378.584 507.357 380.177 506.809L390.573 537.17C388.784 537.779 386.954 538.384 385.138 538.969ZM199.552 537.213C197.745 536.594 195.92 535.952 194.131 535.299L205.107 505.148C206.696 505.724 208.32 506.3 209.926 506.847L199.552 537.213ZM395.972 535.261L384.987 505.11C386.579 504.529 388.186 503.925 389.756 503.321L401.331 533.248C399.559 533.933 397.757 534.609 395.972 535.261ZM188.759 533.286C186.987 532.601 185.189 531.887 183.427 531.168L195.568 501.464C197.143 502.107 198.74 502.745 200.319 503.354L188.759 533.286ZM406.645 531.135L394.49 501.436C396.052 500.798 397.627 500.132 399.171 499.465L411.901 528.922C410.165 529.674 408.398 530.416 406.645 531.135ZM178.135 528.941C176.377 528.179 174.61 527.399 172.887 526.613L186.193 497.414C187.723 498.114 189.294 498.809 190.86 499.484L178.135 528.941ZM417.113 526.613L403.816 497.409C405.355 496.71 406.904 495.986 408.421 495.258L422.284 524.2C420.575 525.014 418.839 525.823 417.113 526.613ZM167.694 524.186C165.967 523.358 164.231 522.506 162.54 521.654L176.975 492.997C178.478 493.754 180.018 494.511 181.552 495.248L167.694 524.186ZM427.397 521.687L412.976 493.021C414.48 492.264 416.002 491.479 417.492 490.694L432.466 519.074C430.793 519.955 429.088 520.835 427.397 521.687ZM157.449 519.032C155.78 518.151 154.085 517.233 152.407 516.304L167.935 488.223C169.434 489.052 170.946 489.87 172.428 490.651L157.449 519.032ZM437.49 516.362L421.967 488.276C423.444 487.457 424.934 486.615 426.393 485.772L442.456 513.553C440.819 514.501 439.15 515.443 437.49 516.362ZM147.414 513.482C145.777 512.535 144.117 511.554 142.484 510.564L159.091 483.107C160.55 483.988 162.027 484.863 163.486 485.71L147.414 513.482ZM447.374 510.645L430.775 483.183C432.23 482.303 433.684 481.403 435.103 480.508L452.233 507.642C450.635 508.651 449.002 509.66 447.374 510.645ZM137.616 507.547C136.009 506.533 134.385 505.486 132.801 504.439L150.471 477.653C151.885 478.586 153.326 479.514 154.754 480.418L137.616 507.547ZM457.029 504.553L439.378 477.753C440.792 476.82 442.216 475.863 443.603 474.911L461.763 501.369C460.206 502.44 458.613 503.511 457.029 504.553ZM128.049 501.241C126.488 500.165 124.908 499.061 123.364 497.952L142.055 471.87C143.434 472.86 144.84 473.845 146.232 474.802L128.049 501.241ZM466.439 498.09L447.775 471.989C449.136 471.018 450.519 470.004 451.889 468.986L471.058 494.72C469.518 495.867 467.965 497 466.439 498.09ZM118.742 494.573C117.224 493.44 115.694 492.274 114.186 491.108L133.868 465.763C135.211 466.806 136.576 467.848 137.928 468.857L118.742 494.573ZM475.6 491.265L455.941 465.906C457.27 464.874 458.618 463.812 459.934 462.746L480.08 487.724C478.603 488.918 477.095 490.108 475.6 491.265ZM109.706 487.552C108.234 486.363 106.748 485.139 105.293 483.911L125.939 459.348C127.237 460.442 128.562 461.532 129.879 462.594L109.706 487.552ZM484.497 484.092L463.869 459.509C465.168 458.42 466.471 457.306 467.742 456.192L488.834 480.375C487.411 481.622 485.947 482.874 484.497 484.092ZM100.947 480.194C99.5195 478.947 98.0827 477.662 96.6772 476.387L118.26 452.637C119.514 453.774 120.794 454.917 122.066 456.03L100.947 480.194ZM493.109 476.582L471.553 452.813C472.807 451.675 474.065 450.514 475.296 449.353L497.307 472.703C495.924 473.997 494.514 475.306 493.109 476.582ZM92.4785 472.498C91.1042 471.199 89.7166 469.866 88.3601 468.533L110.835 445.631C112.049 446.821 113.285 448.011 114.507 449.167L92.4785 472.498ZM501.426 468.738L478.969 445.816C480.182 444.627 481.396 443.418 482.578 442.214L505.473 464.697C504.147 466.049 502.787 467.406 501.426 468.738ZM84.322 464.488C82.9879 463.127 81.6538 461.742 80.3554 460.361L103.705 438.349C104.86 439.577 106.047 440.809 107.234 442.018L84.322 464.488ZM509.439 460.58L486.112 438.544C487.277 437.311 488.441 436.055 489.584 434.798L513.326 456.387C512.05 457.791 510.742 459.2 509.439 460.58ZM76.4734 456.173C75.2018 454.774 73.9256 453.336 72.6763 451.904L96.8512 430.8C97.9667 432.081 99.1089 433.361 100.238 434.608L76.4734 456.173ZM517.132 452.113L492.975 430.991C494.095 429.71 495.21 428.411 496.294 427.116L520.853 447.773C519.639 449.224 518.386 450.681 517.132 452.113ZM68.9595 447.563C67.7414 446.112 66.5188 444.631 65.3319 443.156L90.301 423C91.363 424.318 92.4561 425.641 93.5404 426.936L68.9595 447.563ZM524.498 443.361L499.543 423.185C500.614 421.862 501.68 420.515 502.715 419.182L528.05 438.877C526.895 440.367 525.699 441.876 524.498 443.361ZM61.7847 438.668C60.6201 437.168 59.46 435.636 58.3267 434.122L84.0543 414.946C85.0627 416.298 86.0979 417.664 87.1376 419.002L61.7847 438.668ZM531.522 434.322L505.807 415.127C506.829 413.761 507.842 412.376 508.824 411.006L534.904 429.701C533.802 431.238 532.664 432.79 531.522 434.322ZM54.9579 429.51C53.8558 427.973 52.7537 426.398 51.6784 424.837L78.1288 406.665C79.0881 408.059 80.0698 409.464 81.0514 410.834L54.9579 429.51ZM538.192 425.018L511.755 406.832C512.719 405.432 513.678 404.004 514.611 402.596L541.391 420.272C540.347 421.852 539.272 423.447 538.192 425.018ZM48.488 420.096C47.4529 418.526 46.4133 416.912 45.3959 415.303L72.5247 398.164C73.4349 399.602 74.363 401.044 75.2866 402.448L48.488 420.096ZM544.501 415.456L517.382 398.307C518.287 396.875 519.193 395.414 520.068 393.967L547.518 410.587C546.532 412.205 545.519 413.847 544.501 415.456ZM42.3975 410.444C41.4248 408.835 40.4476 407.184 39.4928 405.532L67.264 389.455C68.1162 390.925 68.9863 392.401 69.8564 393.838L42.3975 410.444ZM550.436 405.656L522.673 389.564C523.517 388.108 524.365 386.613 525.19 385.123L553.265 400.663C552.337 402.339 551.382 404.019 550.436 405.656ZM36.6817 400.563C35.7715 398.917 34.8567 397.227 33.9688 395.547L62.3424 380.559C63.1367 382.063 63.9487 383.567 64.7608 385.033L36.6817 400.563ZM555.982 395.628L527.613 380.631C528.398 379.15 529.184 377.623 529.955 376.095L558.615 390.53C557.753 392.244 556.866 393.962 555.982 395.628ZM31.3542 390.473C30.5064 388.788 29.6586 387.07 28.8376 385.357L57.7734 371.483C58.5052 373.011 59.2592 374.543 60.0133 376.047L31.3542 390.473ZM561.144 385.381L532.209 371.507C532.945 369.969 533.677 368.408 534.373 366.88L563.576 380.183C562.791 381.906 561.974 383.653 561.144 385.381ZM26.4237 380.188C25.6428 378.47 24.862 376.718 24.108 374.976L53.5613 362.24C54.2306 363.792 54.9266 365.353 55.6227 366.88L26.4237 380.188ZM565.901 374.943L536.448 362.211C537.121 360.655 537.786 359.07 538.429 357.499L568.128 369.655C567.405 371.416 566.659 373.196 565.901 374.943ZM21.8993 369.722C21.1809 367.966 20.467 366.176 19.7798 364.401L49.7106 352.826C50.3219 354.406 50.9555 355.995 51.5935 357.557L21.8993 369.722ZM570.251 364.32L540.321 352.75C540.927 351.179 541.534 349.565 542.119 347.961L572.268 358.942C571.612 360.741 570.934 362.549 570.251 364.32ZM17.7675 359.046C17.116 357.266 16.478 355.448 15.8622 353.654L46.217 343.25C46.7658 344.853 47.3368 346.467 47.9169 348.057L17.7675 359.046ZM574.178 353.53L543.819 343.135C544.363 341.541 544.907 339.908 545.425 338.285L575.985 348.071C575.4 349.894 574.794 351.731 574.178 353.53ZM14.0596 348.218C13.484 346.419 12.9129 344.582 12.3641 342.755L43.1024 333.545C43.5888 335.173 44.0975 336.815 44.6151 338.414L14.0596 348.218ZM577.676 342.607L546.933 333.416C547.415 331.798 547.892 330.151 548.348 328.519L579.265 337.11C578.756 338.942 578.22 340.789 577.676 342.607ZM10.7756 337.253C10.267 335.425 9.7672 333.564 9.29424 331.727L40.3718 323.726C40.7957 325.363 41.2374 327.02 41.6925 328.652L10.7756 337.253ZM580.741 331.579L549.664 323.588C550.079 321.97 550.489 320.304 550.882 318.643L582.111 326.015C581.669 327.886 581.21 329.756 580.741 331.579ZM7.91997 326.168C7.4827 324.326 7.05878 322.451 6.6572 320.59L38.0203 313.803C38.3817 315.464 38.7565 317.139 39.1447 318.776L7.91997 326.168ZM583.37 320.437L552.002 313.674C552.359 312.027 552.702 310.347 553.028 308.681L584.521 314.831C584.159 316.701 583.771 318.586 583.37 320.437ZM5.50604 314.988C5.14016 313.127 4.79214 311.237 4.46196 309.362L36.066 303.808C36.3605 305.478 36.6728 307.163 36.9985 308.819L5.50604 314.988ZM585.565 309.21L553.956 303.67C554.251 301.999 554.527 300.309 554.786 298.644L586.497 303.56C586.203 305.435 585.89 307.334 585.565 309.21ZM3.52496 303.713C3.23493 301.852 2.95824 299.948 2.69945 298.058L34.4954 293.732C34.7274 295.422 34.9728 297.121 35.2316 298.782L3.52496 303.713ZM587.318 297.901L555.518 293.599C555.746 291.919 555.96 290.215 556.152 288.539L588.028 292.223C587.809 294.108 587.573 296.016 587.318 297.901ZM1.98555 292.375C1.76691 290.495 1.56614 288.582 1.3832 286.693L33.3219 283.604C33.4869 285.293 33.6654 286.997 33.8617 288.677L1.98555 292.375ZM588.63 286.531L556.687 283.47C556.848 281.771 556.999 280.063 557.124 278.387L589.121 280.843C588.978 282.718 588.813 284.632 588.63 286.531ZM0.887925 280.996C0.74068 279.116 0.61129 277.197 0.504203 275.294L32.541 273.437C32.6392 275.137 32.7552 276.85 32.8846 278.525L0.887925 280.996ZM589.505 275.137L557.468 273.295C557.566 271.61 557.646 269.896 557.709 268.202L589.772 269.425C589.706 271.324 589.612 273.247 589.505 275.137ZM0.227564 269.578C0.156173 267.683 0.0981696 265.765 0.0624739 263.876L32.1439 263.247C32.1752 264.932 32.2287 266.646 32.2911 268.34L0.227564 269.578ZM589.942 263.714L557.861 263.1C557.892 261.41 557.91 259.692 557.91 257.998V257.684H590V257.998C589.996 259.897 589.978 261.82 589.942 263.714ZM32.0904 258.155H0V257.998C0 256.16 0.0178413 254.295 0.049075 252.448L32.1306 253.038C32.0993 254.685 32.0859 256.356 32.0859 257.993V258.155H32.0904ZM557.852 252.6C557.816 250.906 557.767 249.193 557.7 247.508L589.763 246.251C589.839 248.136 589.893 250.054 589.933 251.948L557.852 252.6ZM32.2778 247.941L0.214165 246.732C0.285556 244.842 0.374785 242.92 0.481872 241.025L32.5187 242.843C32.425 244.538 32.3448 246.256 32.2778 247.941ZM557.454 242.415C557.352 240.706 557.236 238.993 557.106 237.322L589.099 234.833C589.246 236.704 589.375 238.622 589.487 240.535L557.454 242.415ZM32.8578 237.756L0.861127 235.323C1.00391 233.424 1.16905 231.506 1.35199 229.622L33.2951 232.677C33.1344 234.357 32.9872 236.066 32.8578 237.756ZM556.66 232.244C556.495 230.55 556.312 228.841 556.116 227.175L587.988 223.453C588.206 225.329 588.411 227.242 588.594 229.141L556.66 232.244ZM33.8261 227.604L1.94987 223.934C2.16851 222.035 2.40498 220.126 2.65931 218.256L34.4597 222.544C34.2321 224.21 34.0224 225.914 33.8261 227.604ZM555.482 222.121C555.25 220.426 555 218.727 554.742 217.076L586.444 212.116C586.734 213.972 587.01 215.876 587.274 217.775L555.482 222.121ZM35.1869 217.499L3.47583 212.597C3.76585 210.712 4.08269 208.808 4.40395 206.947L36.0124 212.468C35.7269 214.129 35.4502 215.819 35.1869 217.499ZM553.907 212.045C553.613 210.37 553.296 208.68 552.975 207.033L584.463 200.851C584.824 202.702 585.177 204.591 585.511 206.471L553.907 212.045ZM36.9406 207.457L5.44356 201.322C5.80498 199.461 6.1932 197.576 6.59032 195.72L37.9624 202.464C37.6054 204.12 37.2618 205.8 36.9406 207.457ZM551.944 202.045C551.583 200.384 551.203 198.709 550.815 197.076L582.035 189.666C582.473 191.503 582.897 193.378 583.303 195.244L551.944 202.045ZM39.0823 197.495L7.84857 190.137C8.28584 188.276 8.74544 186.41 9.21395 184.578L40.296 192.545C39.881 194.173 39.4705 195.839 39.0823 197.495ZM549.588 192.126C549.164 190.489 548.722 188.833 548.267 187.205L579.175 178.586C579.684 180.413 580.184 182.274 580.657 184.111L549.588 192.126ZM41.6122 187.619L10.6864 179.052C11.1995 177.205 11.7305 175.354 12.2704 173.545L43.0177 182.731C42.5402 184.33 42.0673 185.977 41.6122 187.619ZM546.853 182.308C546.371 180.699 545.862 179.062 545.34 177.443L575.891 167.62C576.476 169.438 577.047 171.275 577.591 173.084L546.853 182.308ZM44.5259 177.853L13.9614 168.081C14.5415 166.263 15.1483 164.426 15.7641 162.627L46.1321 172.998C45.5833 174.602 45.0435 176.234 44.5259 177.853ZM543.734 172.608C543.185 171.004 542.61 169.39 542.034 167.801L572.174 156.792C572.826 158.572 573.468 160.385 574.084 162.184L543.734 172.608ZM47.8277 168.177L17.6693 157.211C18.3208 155.421 18.999 153.613 19.6817 151.837L49.6214 163.389C49.0146 164.969 48.4122 166.577 47.8277 168.177ZM540.236 163.036C539.62 161.447 538.986 159.857 538.348 158.301L568.038 146.121C568.752 147.868 569.466 149.653 570.158 151.433L540.236 163.036ZM51.5088 158.634L21.8056 146.497C22.5284 144.731 23.278 142.947 24.032 141.205L53.4899 153.927C52.8206 155.478 52.1513 157.063 51.5088 158.634ZM536.376 153.622C535.707 152.075 535.011 150.514 534.315 148.982L563.509 135.66C564.295 137.378 565.071 139.13 565.825 140.871L536.376 153.622ZM55.5603 149.248L26.3523 135.964C27.1376 134.232 27.9542 132.485 28.7796 130.762L57.7198 144.622C56.988 146.155 56.2608 147.711 55.5603 149.248ZM532.16 144.379C531.428 142.856 530.674 141.324 529.915 139.82L558.57 125.375C559.422 127.064 560.27 128.782 561.086 130.491L532.16 144.379ZM59.9731 140.034L31.305 125.613C32.1662 123.899 33.0497 122.181 33.9332 120.51L62.3112 135.493C61.5259 136.983 60.7406 138.511 59.9731 140.034ZM527.586 135.308C526.792 133.808 525.98 132.304 525.168 130.834L553.238 115.289C554.148 116.936 555.063 118.626 555.955 120.306L527.586 135.308ZM64.7386 130.996L36.6549 115.47C37.5741 113.804 38.5245 112.124 39.4794 110.477L67.2551 126.55C66.4073 128.021 65.5596 129.515 64.7386 130.996ZM522.66 126.412C521.803 124.937 520.933 123.466 520.063 122.029L547.513 105.409C548.486 107.013 549.463 108.664 550.418 110.316L522.66 126.412ZM69.8564 122.157L42.3975 105.556C43.3836 103.924 44.4009 102.282 45.4138 100.678L72.5425 117.817C71.6367 119.244 70.7354 120.701 69.8564 122.157ZM517.391 117.707C516.48 116.27 515.552 114.832 514.629 113.428L541.418 95.7611C542.453 97.3317 543.497 98.9452 544.515 100.554L517.391 117.707ZM75.3044 113.524L48.5104 95.861C49.5589 94.2713 50.6342 92.6722 51.7096 91.1111L78.1556 109.288C77.1963 110.682 76.237 112.11 75.3044 113.524ZM511.786 109.207C510.832 107.822 509.85 106.418 508.864 105.042L534.948 86.3516C536.055 87.8984 537.161 89.4691 538.232 91.0254L511.786 109.207ZM81.0871 105.109L54.9981 86.4277C56.1002 84.8904 57.238 83.3341 58.3758 81.8063L84.0989 100.987C83.0861 102.353 82.0687 103.738 81.0871 105.109ZM505.856 100.935C504.844 99.5782 503.804 98.2122 502.769 96.8795L528.113 77.1991C529.273 78.6936 530.437 80.2214 531.571 81.7397L505.856 100.935ZM87.191 96.9272L61.8426 77.2514C63.0117 75.7474 64.2076 74.234 65.3989 72.7633L90.3591 92.934C89.2971 94.2428 88.2307 95.585 87.191 96.9272ZM499.605 92.8863C498.543 91.5679 497.45 90.2449 496.366 88.955L520.929 68.3084C522.147 69.76 523.37 71.2402 524.565 72.7204L499.605 92.8863ZM93.6029 88.9883L69.0354 68.3465C70.2535 66.8948 71.5073 65.4336 72.7567 64.001L96.9226 85.1141C95.8071 86.3897 94.6872 87.6938 93.6029 88.9883ZM493.051 85.0856C491.935 83.81 490.793 82.5297 489.659 81.278L513.41 59.7032C514.682 61.1025 515.963 62.5399 517.212 63.9678L493.051 85.0856ZM100.314 81.3065L76.5583 59.7318C77.8344 58.3278 79.1417 56.9142 80.4446 55.5339L103.776 77.5608C102.616 78.7935 101.452 80.0548 100.314 81.3065ZM486.197 77.5418C485.028 76.3043 483.837 75.0668 482.659 73.8627L505.562 51.3884C506.883 52.7353 508.217 54.1204 509.524 55.5054L486.197 77.5418ZM107.315 73.8913L84.4113 51.417C85.7365 50.0653 87.0974 48.704 88.4538 47.3761L110.924 70.2835C109.711 71.4687 108.497 72.6824 107.315 73.8913ZM479.053 70.2598C477.84 69.0699 476.604 67.88 475.377 66.7235L497.397 43.383C498.771 44.6776 500.159 46.015 501.519 47.3476L479.053 70.2598ZM114.596 66.7473L92.5722 43.4067C93.9509 42.1026 95.3609 40.7985 96.7664 39.523L118.336 63.2824C117.086 64.4246 115.823 65.586 114.596 66.7473ZM471.633 63.2633C470.375 62.121 469.094 60.9787 467.823 59.8698L488.923 35.6964C490.347 36.9386 491.783 38.2189 493.198 39.4992L471.633 63.2633ZM122.142 59.8936L101.032 35.7249C102.455 34.4827 103.919 33.231 105.374 32.0078L126.01 56.581C124.716 57.6709 123.413 58.7846 122.142 59.8936ZM463.95 56.5524C462.656 55.4673 461.326 54.3726 460.01 53.3065L480.164 28.3382C481.641 29.5329 483.127 30.756 484.582 31.9744L463.95 56.5524ZM129.946 53.3398L109.782 28.3763C111.259 27.1864 112.767 25.9918 114.262 24.8305L133.934 50.1842C132.605 51.2171 131.262 52.2784 129.946 53.3398ZM456.007 50.1414C454.673 49.1039 453.303 48.0663 451.943 47.0525L471.12 21.3228C472.646 22.4603 474.177 23.6263 475.676 24.7876L456.007 50.1414ZM137.99 47.0953L118.809 21.3703C120.33 20.2328 121.883 19.1001 123.418 18.0006L142.1 44.0921C140.735 45.0726 139.351 46.0816 137.99 47.0953ZM447.824 44.0398C446.445 43.0546 445.04 42.0646 443.643 41.1079L461.812 14.6547C463.379 15.7304 464.954 16.8345 466.497 17.9387L447.824 44.0398ZM146.272 41.165L128.094 14.7213C129.66 13.6457 131.253 12.5748 132.832 11.5325L150.493 38.3236C149.087 39.2517 147.668 40.2084 146.272 41.165ZM439.409 38.2618C437.986 37.3242 436.544 36.396 435.117 35.4917L452.246 8.35792C453.848 9.36693 455.463 10.414 457.056 11.4611L439.409 38.2618ZM154.767 35.5631L137.629 8.43406C139.226 7.42505 140.86 6.41603 142.484 5.43082L159.1 32.8835C157.65 33.764 156.195 34.6636 154.767 35.5631ZM430.771 32.8121C429.32 31.9364 427.844 31.0607 426.376 30.2135L442.434 2.43235C444.081 3.38425 445.74 4.3647 447.369 5.34992L430.771 32.8121ZM163.477 30.2991L147.396 2.52755C149.038 1.57565 150.707 0.633255 152.367 -0.285324L167.899 27.7909C166.427 28.6095 164.936 29.4519 163.477 30.2991ZM421.936 27.7004C420.441 26.8771 418.929 26.0584 417.438 25.2731L432.404 -3.11246C434.077 -2.23196 435.772 -1.31336 437.446 -0.390018L421.936 27.7004ZM172.37 25.3731L157.378 -2.99824C159.055 -3.8835 160.76 -4.76401 162.451 -5.61595L176.885 23.0409C175.386 23.8024 173.865 24.583 172.37 25.3731ZM412.896 22.9362C411.379 22.1747 409.835 21.4179 408.309 20.685L422.155 -8.26223C423.868 -7.4436 425.604 -6.59165 427.304 -5.73494L412.896 22.9362ZM181.445 20.7992L167.569 -8.13371C169.282 -8.9571 171.022 -9.76622 172.736 -10.5515L186.046 18.6479C184.524 19.3428 182.976 20.071 181.445 20.7992ZM403.678 18.5242C402.134 17.8198 400.559 17.1249 399.006 16.4538L411.714 -13.0122C413.458 -12.2602 415.225 -11.4796 416.961 -10.6896L403.678 18.5242ZM190.691 16.5871L177.947 -12.8646C179.687 -13.6166 181.454 -14.3639 183.203 -15.0778L195.367 14.6166C193.814 15.2544 192.239 15.916 190.691 16.5871ZM394.294 14.4786C392.723 13.8361 391.122 13.2031 389.542 12.5938L401.085 -17.3481C402.861 -16.6627 404.655 -15.9535 406.417 -15.2301L394.294 14.4786ZM200.105 12.7271L188.518 -17.1958C190.289 -17.8811 192.092 -18.5618 193.876 -19.209L204.875 10.9375C203.287 11.5134 201.68 12.1179 200.105 12.7271ZM384.75 10.7995C383.153 10.2188 381.528 9.64774 379.927 9.1004L390.287 -21.2699C392.085 -20.6559 393.91 -20.0134 395.704 -19.3613L384.75 10.7995ZM209.676 9.23841L199.271 -21.1176C201.074 -21.7363 202.903 -22.3408 204.706 -22.9214L214.513 7.6297C212.911 8.14373 211.283 8.68631 209.676 9.23841ZM375.072 7.49645C373.457 6.98243 371.819 6.47791 370.2 5.99244L379.364 -24.7586C381.18 -24.216 383.019 -23.6496 384.83 -23.0737L375.072 7.49645ZM219.381 6.12095L210.167 -24.6158C211.988 -25.1632 213.839 -25.6962 215.664 -26.2055L224.276 4.70737C222.647 5.15952 221.001 5.63549 219.381 6.12095ZM365.305 4.58838C363.672 4.13623 362.016 3.6936 360.379 3.27476L368.334 -27.8142C370.173 -27.343 372.033 -26.848 373.863 -26.3435L365.305 4.58838ZM229.197 3.38425L221.193 -27.6904C223.026 -28.1616 224.896 -28.6233 226.748 -29.0659L234.146 2.15629C232.495 2.55133 230.83 2.96541 229.197 3.38425ZM355.431 2.0611C353.784 1.67558 352.111 1.29959 350.46 0.942631L357.193 -30.4319C359.049 -30.0321 360.928 -29.6133 362.775 -29.1754L355.431 2.0611ZM239.116 1.03306L232.33 -30.332C234.181 -30.7318 236.069 -31.122 237.934 -31.4885L244.105 0.000263214C242.445 0.333427 240.763 0.676102 239.116 1.03306ZM345.467 -0.0759048C343.803 -0.399551 342.116 -0.70892 340.456 -0.999249L345.962 -32.6117C347.827 -32.2881 349.724 -31.9359 351.589 -31.5742L345.467 -0.0759048ZM249.115 -0.927845L243.556 -32.5308C245.434 -32.8592 247.335 -33.1781 249.2 -33.4684L254.14 -1.76075C252.48 -1.49898 250.789 -1.21817 249.115 -0.927845ZM335.423 -1.82739C333.754 -2.0844 332.059 -2.33191 330.381 -2.55561L334.656 -34.3585C336.539 -34.1062 338.444 -33.8302 340.318 -33.5398L335.423 -1.82739ZM259.186 -2.49847L254.858 -34.2966C256.741 -34.5536 258.651 -34.7963 260.534 -35.0153L264.241 -3.14101C262.568 -2.94112 260.868 -2.72692 259.186 -2.49847ZM325.321 -3.18383C323.639 -3.37897 321.93 -3.5551 320.248 -3.71692L323.291 -35.6626C325.178 -35.4817 327.093 -35.2818 328.976 -35.0677L325.321 -3.18383ZM269.315 -3.67408L266.223 -35.615C268.114 -35.8006 270.033 -35.9672 271.921 -36.11L274.397 -4.1167C272.715 -3.9882 271.006 -3.84066 269.315 -3.67408ZM315.166 -4.15002C313.479 -4.27853 311.77 -4.39277 310.075 -4.48796L311.886 -36.5241C313.783 -36.4146 315.701 -36.2908 317.589 -36.148L315.166 -4.15002ZM279.483 -4.46414L277.623 -36.5002C279.51 -36.6097 281.433 -36.7049 283.33 -36.7763L284.579 -4.71164C282.888 -4.64501 281.17 -4.55933 279.483 -4.46414ZM304.984 -4.72593C303.288 -4.78781 301.57 -4.8354 299.879 -4.86871L300.464 -36.9524C302.355 -36.9191 304.279 -36.8667 306.175 -36.7953L304.984 -4.72593ZM289.67 -4.85918L289.032 -36.9429C290.937 -36.981 292.861 -37 294.752 -37L294.77 -4.91153C293.088 -4.91153 291.37 -4.8925 289.67 -4.85918Z" fill="url(#paint0_radial_509_10718)"/>
<g filter="url(#filter0_d_509_10718)">
<circle cx="295" cy="258" r="154.225" fill="#3994FF"/>
</g>
<path d="M211.856 250.304H220.676V220.953C220.676 217.768 218.912 216.004 215.727 216.004H206.123V222.864H210.043C211.758 222.864 211.856 223.942 211.856 225.461V250.304Z" fill="white"/>
<path d="M239.618 215.71C229.328 215.71 225.065 217.768 225.065 228.793V237.221C225.065 248.442 229.328 250.598 239.618 250.598C249.908 250.598 254.171 248.442 254.171 237.221V228.793C254.171 217.768 249.908 215.71 239.618 215.71ZM239.618 243.738C235.159 243.738 233.885 242.023 233.885 237.123V228.94C233.885 224.285 235.159 222.57 239.618 222.57C244.175 222.57 245.351 224.285 245.351 228.94V237.123C245.351 242.023 244.175 243.738 239.618 243.738Z" fill="white"/>
<path d="M272.157 215.71C261.867 215.71 257.604 217.768 257.604 228.793V237.221C257.604 248.442 261.867 250.598 272.157 250.598C282.447 250.598 286.71 248.442 286.71 237.221V228.793C286.71 217.768 282.447 215.71 272.157 215.71ZM272.157 243.738C267.698 243.738 266.424 242.023 266.424 237.123V228.94C266.424 224.285 267.698 222.57 272.157 222.57C276.714 222.57 277.89 224.285 277.89 228.94V237.123C277.89 242.023 276.714 243.738 272.157 243.738Z" fill="white"/>
<path d="M304.696 215.71C294.406 215.71 290.143 217.768 290.143 228.793V237.221C290.143 248.442 294.406 250.598 304.696 250.598C314.986 250.598 319.249 248.442 319.249 237.221V228.793C319.249 217.768 314.986 215.71 304.696 215.71ZM304.696 243.738C300.237 243.738 298.963 242.023 298.963 237.123V228.94C298.963 224.285 300.237 222.57 304.696 222.57C309.253 222.57 310.429 224.285 310.429 228.94V237.123C310.429 242.023 309.253 243.738 304.696 243.738Z" fill="white"/>
<path d="M359.04 226.637C359.285 225.902 359.53 225.461 359.775 225.461C360.118 225.461 360.314 225.804 360.314 226.539L360.02 250.304H368.84V220.904C368.84 218.307 367.517 215.612 361.833 215.612C358.452 215.612 355.806 216.788 354.434 220.659L347.231 240.455C347.035 241.043 346.643 241.876 346.251 241.876C345.859 241.876 345.467 241.043 345.271 240.455L338.068 220.659C336.696 216.788 334.099 215.612 330.62 215.612C328.023 215.612 323.662 216.298 323.662 220.904V250.304H332.482L332.237 226.539C332.237 226.294 332.188 225.461 332.727 225.461C333.07 225.461 333.266 226.098 333.462 226.637L340.469 246.335C341.4 248.932 342.331 250.696 346.251 250.696C350.122 250.696 351.053 248.932 351.984 246.335L359.04 226.637Z" fill="white"/>
<path d="M250.991 307.836C246.091 307.836 243.837 305.68 243.837 300.78V280.004H235.017V301.221C235.017 311.511 240.946 314.696 250.991 314.696C261.036 314.696 266.965 311.511 266.965 301.221V280.004H258.145V300.78C258.145 305.68 255.891 307.836 250.991 307.836Z" fill="white"/>
<path d="M307.719 290.637C307.964 289.902 308.209 289.461 308.454 289.461C308.797 289.461 308.993 289.804 308.993 290.539L308.699 314.304H317.519V284.904C317.519 282.307 316.196 279.612 310.512 279.612C307.131 279.612 304.485 280.788 303.113 284.659L295.91 304.455C295.714 305.043 295.322 305.876 294.93 305.876C294.538 305.876 294.146 305.043 293.95 304.455L286.747 284.659C285.375 280.788 282.778 279.612 279.299 279.612C276.702 279.612 272.341 280.298 272.341 284.904V314.304H281.161L280.916 290.539C280.916 290.294 280.867 289.461 281.406 289.461C281.749 289.461 281.945 290.098 282.141 290.637L289.148 310.335C290.079 312.932 291.01 314.696 294.93 314.696C298.801 314.696 299.732 312.932 300.663 310.335L307.719 290.637Z" fill="white"/>
<path d="M328.653 280.004H319.245L331.397 310.09C332.328 312.442 334.092 314.696 338.502 314.696C343.01 314.696 344.529 312.589 345.558 310.09L357.759 280.004H348.351L339.188 305.484C338.943 305.974 338.747 306.219 338.502 306.219C338.208 306.219 337.963 305.974 337.816 305.484L328.653 280.004Z" fill="white"/>
</g>
<defs>
<filter id="filter0_d_509_10718" x="110.775" y="77.7749" width="368.449" height="368.45" filterUnits="userSpaceOnUse" color-interpolation-filters="sRGB">
<feFlood flood-opacity="0" result="BackgroundImageFix"/>
<feColorMatrix in="SourceAlpha" type="matrix" values="0 0 0 0 0 0 0 0 0 0 0 0 0 0 0 0 0 0 127 0" result="hardAlpha"/>
<feOffset dy="4"/>
<feGaussianBlur stdDeviation="15"/>
<feComposite in2="hardAlpha" operator="out"/>
<feColorMatrix type="matrix" values="0 0 0 0 0 0 0 0 0 0 0 0 0 0 0 0 0 0 0.25 0"/>
<feBlend mode="normal" in2="BackgroundImageFix" result="effect1_dropShadow_509_10718"/>
<feBlend mode="normal" in="SourceGraphic" in2="effect1_dropShadow_509_10718" result="shape"/>
</filter>
<radialGradient id="paint0_radial_509_10718" cx="0" cy="0" r="1" gradientUnits="userSpaceOnUse" gradientTransform="translate(471.491 555.436) scale(591.662 591.652)">
<stop stop-color="#F96611"/>
<stop offset="0.0001" stop-color="#00C2FF"/>
<stop offset="1" stop-color="#E4FFFB" stop-opacity="0"/>
</radialGradient>
<clipPath id="clip0_509_10718">
<rect width="590" height="553" fill="white"/>
</clipPath>
</defs>
</svg>
