<svg width="363" height="101" viewBox="0 0 363 101" fill="none" xmlns="http://www.w3.org/2000/svg">
<path fill-rule="evenodd" clip-rule="evenodd" d="M13.0995 97.1063L20.9592 87.4193L0 5.05142L9.08779 0C9.08779 0 234.215 5.05142 341.365 0L363 9.42711L344.313 87.0791L347.342 95.7218L322.883 100.433C322.883 100.433 149.846 96.2841 67.0532 101L13.0995 97.1063Z" fill="url(#paint0_linear_146_4555)"/>
<path fill-rule="evenodd" clip-rule="evenodd" d="M21.7165 3.12819L8.51465 7.61256L24.0499 87.3248L32.0529 93.515L73.4391 97.8576L251.715 95.6887L309.108 96.1187L335.921 88.0856L358.968 10.7597L310.52 3.15654L106.843 5.54758L21.7165 3.12819Z" fill="url(#paint1_linear_146_4555)"/>
<path fill-rule="evenodd" clip-rule="evenodd" d="M9.08789 0L21.6962 3.12819L106.823 5.54758L310.5 3.15655L341.365 0C341.365 0 200.361 4.4513 9.08789 0Z" fill="#9E98BB"/>
<path fill-rule="evenodd" clip-rule="evenodd" d="M310.521 3.15655L358.968 10.7597L363 9.42711L341.366 0L310.521 3.15655Z" fill="#8079A5"/>
<path fill-rule="evenodd" clip-rule="evenodd" d="M9.08779 0L21.7165 3.12819L8.51469 7.61257L0 4.35206L9.08779 0Z" fill="#8079A5"/>
<path fill-rule="evenodd" clip-rule="evenodd" d="M73.4392 97.8576L67.0532 101C67.0532 101 179.279 96.5723 322.883 100.433L309.128 96.1187L247.09 95.7407L73.4392 97.8576Z" fill="#3A2F66"/>
<path fill-rule="evenodd" clip-rule="evenodd" d="M347.342 95.7218L335.921 88.0856L309.108 96.1187L322.862 100.433L347.342 95.7218Z" fill="#4F3D70"/>
<path fill-rule="evenodd" clip-rule="evenodd" d="M67.0533 101L73.4393 97.8576L32.053 93.515L13.0996 97.1063L67.0533 101Z" fill="#4F3D70"/>
<path fill-rule="evenodd" clip-rule="evenodd" d="M13.0996 97.1063L32.053 93.515L24.05 87.3248L20.9593 87.4193L13.0996 97.1063Z" fill="#8079A5"/>
<path fill-rule="evenodd" clip-rule="evenodd" d="M349.266 43.3505L334.509 47.7404L330.64 48.8792L346.053 54.1007L349.266 50.4953V43.3505Z" fill="#4F3D70"/>
<path fill-rule="evenodd" clip-rule="evenodd" d="M19.6904 64.988V67.7759V69.8126L22.5764 77.2219L26.1583 71.1073L19.6904 64.988Z" fill="#8579A3"/>
<path fill-rule="evenodd" clip-rule="evenodd" d="M17.1724 4.66866L33.5263 3.46369L21.7163 3.12819L17.1724 4.66866Z" fill="#BEBAD3"/>
<path fill-rule="evenodd" clip-rule="evenodd" d="M296.029 3.42117L320.161 4.66867V2.17368L296.029 3.42117Z" fill="#BEBAD3"/>
<path fill-rule="evenodd" clip-rule="evenodd" d="M289.356 95.7407L317.807 93.515L309.108 96.1187L289.356 95.7407Z" fill="#8579A3"/>
<path fill-rule="evenodd" clip-rule="evenodd" d="M330.64 48.8792L344.047 49.9377L349.266 50.4953L346.053 54.1007L330.64 48.8792Z" fill="#8579A3"/>
<path fill-rule="evenodd" clip-rule="evenodd" d="M349.266 43.3505L347.342 33.8903L352.991 30.8141L349.266 28.1112L355.713 21.7414L349.266 43.3505Z" fill="#8579A3"/>
<path fill-rule="evenodd" clip-rule="evenodd" d="M344.272 60.1161L339.953 63.457L341.365 69.8362L344.272 65.9047V60.1161Z" fill="#8579A3"/>
<path fill-rule="evenodd" clip-rule="evenodd" d="M259.329 86.2474C258.982 86.7152 258.327 87.1925 257.406 87.6508L257.385 87.6555C254.11 89.3141 247.458 90.7176 239.537 90.6609C233.417 90.6136 226.765 89.6591 225.619 88.8652C225.332 88.6715 225.127 88.4825 225.025 88.2982C224.78 87.958 224.841 87.6366 225.127 87.3248C228.402 83.7855 262.175 82.5143 259.329 86.2474Z" fill="url(#paint2_linear_146_4555)"/>
<path fill-rule="evenodd" clip-rule="evenodd" d="M268.069 89.7867C267.967 89.8434 267.865 89.9001 267.721 89.9521C265.409 90.8594 259.944 90.59 258.531 89.73V89.6638C258.511 87.9532 270.28 88.4872 268.069 89.7867Z" fill="url(#paint3_linear_146_4555)"/>
<path fill-rule="evenodd" clip-rule="evenodd" d="M330.169 57.0494C329.985 57.1817 329.76 57.3093 329.494 57.4132C325.38 59.2278 313.959 57.7629 316.967 56.6713C317.295 56.5485 317.848 56.4209 318.605 56.3122C321.348 54.5827 332.769 55.2348 330.169 57.0494Z" fill="url(#paint4_linear_146_4555)"/>
<path fill-rule="evenodd" clip-rule="evenodd" d="M39.0733 29.2075C38.9505 29.4721 38.664 29.7131 38.2751 29.9352C35.5733 31.4899 27.5703 31.8679 29.4943 29.5619H29.085C29.1259 29.354 29.2896 28.9854 29.6581 28.5885C30.3335 27.8466 31.6435 27.0055 34.1201 26.9535C38.3774 26.8637 39.3599 28.5885 39.0733 29.2075Z" fill="url(#paint5_linear_146_4555)"/>
<path fill-rule="evenodd" clip-rule="evenodd" d="M40.7721 22.9653C39.237 24.2553 35.5937 25.413 29.4943 25.9375C23.2515 25.5973 20.7954 25.0634 19.8948 23.5229C19.3421 22.5447 20.1813 21.5146 21.5936 20.5695C21.9416 20.3285 22.3305 20.097 22.7398 19.8702C25.2164 18.514 29.3305 16.1088 37.3949 17.2854C44.2107 18.2919 42.5528 21.4532 40.7721 22.9653Z" fill="url(#paint6_linear_146_4555)"/>
<path fill-rule="evenodd" clip-rule="evenodd" d="M52.2344 15.1401C50.1671 15.6079 46.0735 15.7827 45.1934 14.8755V14.781C45.2343 14.6912 45.3571 14.6014 45.5413 14.5211C46.7285 13.9824 50.5764 13.6469 52.6232 14.1289C54.0355 14.4596 53.5034 14.8518 52.2344 15.1401Z" fill="url(#paint7_linear_146_4555)"/>
<path fill-rule="evenodd" clip-rule="evenodd" d="M257.385 87.6556C254.11 89.3142 247.458 90.7176 239.537 90.6609C233.417 90.6137 226.765 89.6591 225.619 88.8653C225.332 88.6715 225.128 88.4825 225.025 88.2982L225.128 87.3248C225.128 87.3248 230.511 90.1269 242.178 89.5504C250.569 89.1346 255.359 88.1659 257.385 87.6556Z" fill="#8579A3"/>
<path fill-rule="evenodd" clip-rule="evenodd" d="M268.069 89.7867C267.967 89.8434 267.865 89.9001 267.721 89.9521C265.409 90.8594 259.944 90.59 258.531 89.73V89.6638C259.268 89.8718 260.558 90.0749 262.748 90.1033C265.224 90.1317 266.985 89.9426 268.069 89.7867Z" fill="#8579A3"/>
<path fill-rule="evenodd" clip-rule="evenodd" d="M329.514 57.4179C325.4 59.2325 313.979 57.7676 316.988 56.6761C318.155 57.0494 320.263 57.4983 323.517 57.5172C326.198 57.5313 328.163 57.4746 329.514 57.4179Z" fill="#8579A3"/>
<path fill-rule="evenodd" clip-rule="evenodd" d="M40.7721 22.9653C39.237 24.2553 35.5937 25.413 29.4943 25.9375C23.2515 25.5973 20.7954 25.0633 19.8948 23.5229C19.3421 22.5447 20.1813 21.5146 21.5936 20.5695C21.5936 20.5695 20.4679 22.8897 26.9767 24.1703C33.4855 25.4508 40.7721 22.9653 40.7721 22.9653Z" fill="#8579A3"/>
<path fill-rule="evenodd" clip-rule="evenodd" d="M38.2751 29.9352C35.5733 31.4898 27.5703 31.8679 29.4943 29.5619H29.085C29.1259 29.354 29.2896 28.9854 29.6581 28.5885C30.047 29.113 31.2955 30.3605 33.9768 30.3558C36.0031 30.351 37.4359 30.1148 38.2751 29.9352Z" fill="#8579A3"/>
<path fill-rule="evenodd" clip-rule="evenodd" d="M52.2344 15.1401C50.1671 15.6079 46.0735 15.7827 45.1934 14.8755V14.781C45.2343 14.6912 45.3571 14.6014 45.5413 14.5211C46.0121 14.7762 47.0764 15.1117 49.3279 15.0598C50.4536 15.0314 51.4361 15.0739 52.2344 15.1401Z" fill="#8579A3"/>
<path fill-rule="evenodd" clip-rule="evenodd" d="M249.382 78.9609C242.484 75.7051 267.803 73.6496 268.684 77.0093C269.4 79.7075 255.523 80.8841 249.382 78.9609Z" fill="#8275A0"/>
<path fill-rule="evenodd" clip-rule="evenodd" d="M78.9452 84.6171C72.0475 81.3614 97.3664 79.3058 98.2465 82.6656C98.9629 85.3637 85.0856 86.5404 78.9452 84.6171Z" fill="#8579A3"/>
<path fill-rule="evenodd" clip-rule="evenodd" d="M277.117 72.1185C267.947 73.092 278.693 74.4765 282.295 73.3188C285.713 72.2178 278.754 71.1593 275.704 72.3359L277.117 72.1185Z" fill="#8579A3"/>
<path fill-rule="evenodd" clip-rule="evenodd" d="M69.9399 23.6127C66.5217 23.9765 70.5334 24.4916 71.8639 24.0616C73.1329 23.6505 70.5334 23.2583 69.4077 23.6977L69.9399 23.6127Z" fill="#8579A3"/>
<path fill-rule="evenodd" clip-rule="evenodd" d="M272.388 64.3642C264.017 65.2526 273.842 66.519 277.116 65.4605C280.228 64.454 273.882 63.4853 271.099 64.5627L272.388 64.3642Z" fill="#8579A3"/>
<path fill-rule="evenodd" clip-rule="evenodd" d="M30.559 7.36212C27.1408 7.72597 31.1526 8.24104 32.483 7.81103C33.752 7.39992 31.1526 7.00771 30.0268 7.44717L30.559 7.36212Z" fill="#8579A3"/>
<path fill-rule="evenodd" clip-rule="evenodd" d="M226.827 15.2724C223.408 15.6362 227.42 16.1513 228.751 15.7213C230.02 15.3102 227.42 14.918 226.294 15.3575L226.827 15.2724Z" fill="#8579A3"/>
<defs>
<linearGradient id="paint0_linear_146_4555" x1="181.497" y1="100.999" x2="181.497" y2="0" gradientUnits="userSpaceOnUse">
<stop stop-color="#634175"/>
<stop offset="1" stop-color="#686370"/>
</linearGradient>
<linearGradient id="paint1_linear_146_4555" x1="183.75" y1="97.8584" x2="183.75" y2="3.12984" gradientUnits="userSpaceOnUse">
<stop stop-color="#7A5E89"/>
<stop offset="1" stop-color="#787291"/>
</linearGradient>
<linearGradient id="paint2_linear_146_4555" x1="242.182" y1="90.6601" x2="242.182" y2="83.9881" gradientUnits="userSpaceOnUse">
<stop stop-color="#705F84"/>
<stop offset="1" stop-color="#4F4170"/>
</linearGradient>
<linearGradient id="paint3_linear_146_4555" x1="263.445" y1="90.517" x2="263.445" y2="88.5841" gradientUnits="userSpaceOnUse">
<stop stop-color="#705F84"/>
<stop offset="1" stop-color="#4F4170"/>
</linearGradient>
<linearGradient id="paint4_linear_146_4555" x1="323.52" y1="58.2726" x2="323.52" y2="55.3034" gradientUnits="userSpaceOnUse">
<stop stop-color="#705F84"/>
<stop offset="1" stop-color="#4F4170"/>
</linearGradient>
<linearGradient id="paint5_linear_146_4555" x1="34.0914" y1="31.1965" x2="34.0914" y2="26.9501" gradientUnits="userSpaceOnUse">
<stop stop-color="#705F84"/>
<stop offset="1" stop-color="#4F4170"/>
</linearGradient>
<linearGradient id="paint6_linear_146_4555" x1="31.0261" y1="25.9378" x2="31.0261" y2="16.9739" gradientUnits="userSpaceOnUse">
<stop stop-color="#705F84"/>
<stop offset="1" stop-color="#4F4170"/>
</linearGradient>
<linearGradient id="paint7_linear_146_4555" x1="49.323" y1="15.5228" x2="49.323" y2="13.8952" gradientUnits="userSpaceOnUse">
<stop stop-color="#705F84"/>
<stop offset="1" stop-color="#4F4170"/>
</linearGradient>
</defs>
</svg>
