<svg width="32" height="32" viewBox="0 0 32 32" fill="none" xmlns="http://www.w3.org/2000/svg">
<path d="M16.0003 2.6665C8.64833 2.6665 2.66699 8.64784 2.66699 15.9998C2.66699 23.3518 8.64833 29.3332 16.0003 29.3332C23.3523 29.3332 29.3337 23.3518 29.3337 15.9998C29.3337 8.64784 23.3523 2.6665 16.0003 2.6665ZM5.33366 15.9998C5.33366 14.8012 5.54166 13.6505 5.90833 12.5745L8.00033 14.6665L10.667 17.3332V19.9998L13.3337 22.6665L14.667 23.9998V26.5745C9.41499 25.9145 5.33366 21.4292 5.33366 15.9998ZM24.4403 22.4972C23.5697 21.7958 22.2497 21.3332 21.3337 21.3332V19.9998C21.3337 19.2926 21.0527 18.6143 20.5526 18.1142C20.0525 17.6141 19.3742 17.3332 18.667 17.3332H13.3337V13.3332C14.0409 13.3332 14.7192 13.0522 15.2193 12.5521C15.7194 12.052 16.0003 11.3737 16.0003 10.6665V9.33317H17.3337C18.0409 9.33317 18.7192 9.05222 19.2193 8.55212C19.7194 8.05203 20.0003 7.37375 20.0003 6.6665V6.1185C23.9043 7.70384 26.667 11.5332 26.667 15.9998C26.6668 18.3528 25.8834 20.6387 24.4403 22.4972Z" fill="white" fill-opacity="0.8"/>
</svg>
