<svg width="32" height="32" viewBox="0 0 32 32" fill="none" xmlns="http://www.w3.org/2000/svg">
<path d="M13.6471 14.907C13.3566 14.8824 13.0654 14.9462 12.8117 15.0898C12.5579 15.2335 12.3535 15.4504 12.2251 15.7122C12.0967 15.974 12.0503 16.2685 12.0921 16.5571C12.1338 16.8456 12.2617 17.1149 12.4589 17.3296C12.6562 17.5443 12.9138 17.6944 13.1978 17.7604C13.4818 17.8263 13.7791 17.8049 14.0508 17.6991C14.3225 17.5932 14.5559 17.4078 14.7205 17.1671C14.8851 16.9264 14.9731 16.6416 14.9731 16.35C14.9809 16.1682 14.9528 15.9866 14.8903 15.8156C14.8279 15.6447 14.7324 15.4877 14.6092 15.3537C14.4861 15.2197 14.3377 15.1112 14.1726 15.0346C14.0076 14.9579 13.829 14.9146 13.6471 14.907ZM18.3921 14.907C18.1016 14.8824 17.8104 14.9462 17.5567 15.0898C17.3029 15.2335 17.0985 15.4504 16.9701 15.7122C16.8417 15.974 16.7953 16.2685 16.8371 16.5571C16.8788 16.8456 17.0067 17.1149 17.2039 17.3296C17.4012 17.5443 17.6588 17.6944 17.9428 17.7604C18.2268 17.8263 18.5241 17.8049 18.7958 17.6991C19.0675 17.5932 19.3009 17.4078 19.4655 17.1671C19.6301 16.9264 19.7181 16.6416 19.7182 16.35C19.7259 16.1682 19.6978 15.9866 19.6354 15.8156C19.5729 15.6447 19.4774 15.4877 19.3542 15.3537C19.2311 15.2197 19.0827 15.1112 18.9176 15.0346C18.7526 14.9579 18.574 14.9146 18.3921 14.907Z" fill="white" fill-opacity="0.8"/>
<path d="M24.71 4H7.29001C6.93916 4.00079 6.59191 4.07069 6.26809 4.20571C5.94426 4.34073 5.65021 4.53822 5.40273 4.78691C5.15525 5.0356 4.95918 5.33061 4.82574 5.65509C4.6923 5.97957 4.62409 6.32716 4.62501 6.678V24.254C4.62409 24.6048 4.6923 24.9524 4.82574 25.2769C4.95918 25.6014 5.15525 25.8964 5.40273 26.1451C5.65021 26.3938 5.94426 26.5913 6.26809 26.7263C6.59191 26.8613 6.93916 26.9312 7.29001 26.932H22.032L21.343 24.527L23.007 26.074L24.58 27.53L27.375 30V6.678C27.3759 6.32716 27.3077 5.97957 27.1743 5.65509C27.0408 5.33061 26.8448 5.0356 26.5973 4.78691C26.3498 4.53822 26.0558 4.34073 25.7319 4.20571C25.4081 4.07069 25.0609 4.00079 24.71 4ZM19.692 20.978C19.692 20.978 19.224 20.419 18.834 19.925C19.7763 19.7031 20.6098 19.1552 21.187 18.378C20.7192 18.6893 20.2177 18.9466 19.692 19.145C19.0872 19.4031 18.4547 19.5907 17.807 19.704C16.6936 19.909 15.5518 19.9046 14.44 19.691C13.7873 19.5633 13.1476 19.3762 12.529 19.132C12.2029 19.0066 11.8858 18.8589 11.58 18.69C11.541 18.664 11.502 18.651 11.463 18.625C11.4435 18.6153 11.4258 18.602 11.411 18.586C11.2863 18.518 11.1648 18.4443 11.047 18.365C11.6033 19.1259 12.408 19.6685 13.322 19.899C12.932 20.393 12.451 20.978 12.451 20.978C11.6788 20.9988 10.9133 20.8295 10.2219 20.4849C9.53046 20.1403 8.93435 19.6311 8.48601 19.002C8.52821 16.3665 9.16831 13.775 10.358 11.423C11.4049 10.6007 12.6814 10.1237 14.011 10.058L14.141 10.214C12.8901 10.5236 11.7227 11.105 10.722 11.917C10.722 11.917 11.008 11.761 11.489 11.54C12.4235 11.1134 13.4194 10.837 14.44 10.721C14.5128 10.7059 14.5867 10.6972 14.661 10.695C15.5322 10.5815 16.4138 10.5728 17.287 10.669C18.6603 10.8258 19.9895 11.2498 21.2 11.917C20.25 11.1437 19.1467 10.581 17.963 10.266L18.145 10.058C19.4746 10.1237 20.7511 10.6007 21.798 11.423C22.9877 13.775 23.6278 16.3665 23.67 19.002C23.218 19.6305 22.6194 20.139 21.9261 20.4834C21.2328 20.8278 20.4659 20.9976 19.692 20.978Z" fill="white" fill-opacity="0.8"/>
</svg>
