<svg width="28" height="32" viewBox="0 0 28 32" fill="none" xmlns="http://www.w3.org/2000/svg">
<path d="M25 2H3C1.34375 2 0 3.34375 0 5V27C0 28.6562 1.34375 30 3 30H25C26.6562 30 28 28.6562 28 27V5C28 3.34375 26.6562 2 25 2ZM21.9438 11.925C21.9563 12.1 21.9562 12.2812 21.9562 12.4563C21.9562 17.875 17.8312 24.1187 10.2937 24.1187C7.96875 24.1187 5.8125 23.4438 4 22.2812C4.33125 22.3188 4.65 22.3312 4.9875 22.3312C6.90625 22.3312 8.66875 21.6812 10.075 20.5812C8.275 20.5437 6.7625 19.3625 6.24375 17.7375C6.875 17.8312 7.44375 17.8313 8.09375 17.6625C6.21875 17.2812 4.8125 15.6312 4.8125 13.6375V13.5875C5.35625 13.8937 5.99375 14.0813 6.6625 14.1062C6.10027 13.7323 5.63936 13.2249 5.32092 12.6295C5.00247 12.034 4.83639 11.369 4.8375 10.6938C4.8375 9.93125 5.0375 9.23125 5.39375 8.625C7.4125 11.1125 10.4438 12.7375 13.8438 12.9125C13.2625 10.1313 15.3438 7.875 17.8438 7.875C19.025 7.875 20.0875 8.36875 20.8375 9.16875C21.7625 8.99375 22.65 8.65 23.4375 8.18125C23.1313 9.13125 22.4875 9.93125 21.6375 10.4375C22.4625 10.35 23.2625 10.1188 24 9.8C23.4438 10.6188 22.7437 11.3438 21.9438 11.925Z" fill="white" fill-opacity="0.8"/>
</svg>
