<svg width="28" height="32" viewBox="0 0 28 32" fill="none" xmlns="http://www.w3.org/2000/svg">
<path d="M17.7 21.5938C17.8688 21.7625 17.8688 22.0188 17.7 22.1688C16.1688 23.7 11.8375 23.7063 10.3 22.1688C10.1313 22.0188 10.1313 21.7625 10.3 21.5938C10.45 21.4438 10.7063 21.4438 10.8562 21.5938C12.025 22.7938 15.9188 22.8188 17.1375 21.5938C17.2875 21.45 17.55 21.45 17.7 21.5938ZM11.9937 18.2313C11.9937 17.3 11.25 16.5562 10.3375 16.5562C9.40625 16.5562 8.6625 17.3 8.6625 18.2313C8.6625 19.1438 9.40625 19.8875 10.3375 19.8875C11.25 19.8875 11.9937 19.1438 11.9937 18.2313ZM17.6625 16.5562C16.75 16.5562 16.0063 17.3 16.0063 18.2313C16.0063 19.1438 16.75 19.8875 17.6625 19.8875C18.5938 19.8875 19.3375 19.1438 19.3375 18.2313C19.3375 17.3 18.5938 16.5562 17.6625 16.5562ZM28 5V27C28 28.6562 26.6562 30 25 30H3C1.34375 30 0 28.6562 0 27V5C0 3.34375 1.34375 2 3 2H25C26.6562 2 28 3.34375 28 5ZM21.7687 13.7875C21.1375 13.7875 20.5813 14.05 20.1688 14.4563C18.6625 13.4125 16.6375 12.7437 14.3875 12.6687L15.5562 7.40625L19.275 8.24375C19.275 9.15625 20.0187 9.9 20.9312 9.9C21.8625 9.9 22.6063 9.1375 22.6063 8.225C22.6063 7.3125 21.8625 6.55 20.9312 6.55C20.2812 6.55 19.725 6.9375 19.4438 7.48125L15.3375 6.56875C15.1312 6.5125 14.9312 6.6625 14.875 6.86875L13.5938 12.6687C11.3625 12.7625 9.35625 13.4313 7.85 14.475C7.44375 14.05 6.8625 13.7875 6.23125 13.7875C3.8875 13.7875 3.11875 16.9375 5.2625 18.0063C5.1875 18.3438 5.15 18.6937 5.15 19.05C5.15 22.5812 9.13125 25.4438 14.0188 25.4438C18.925 25.4438 22.9062 22.5812 22.9062 19.05C22.9062 18.6937 22.8687 18.325 22.775 17.9875C24.875 16.9125 24.1 13.7875 21.7687 13.7875Z" fill="white" fill-opacity="0.8"/>
</svg>
