<svg width="284" height="97" viewBox="0 0 284 97" fill="none" xmlns="http://www.w3.org/2000/svg">
<path d="M28.8984 13.082V40.5391C28.8984 42.6484 28.4062 44.5703 27.4219 46.3047C26.4375 48.0391 25.0195 49.4219 23.168 50.4531C21.3164 51.4844 19.0898 52 16.4883 52H0.105469V1.62109H16.4883C19.0898 1.62109 21.3164 2.13672 23.168 3.16797C25.0195 4.19922 26.4375 5.58203 27.4219 7.31641C28.4062 9.05078 28.8984 10.9727 28.8984 13.082ZM10.4414 43.4922C11.0977 43.5156 11.6953 43.5273 12.2344 43.5273C14.6719 43.5273 16.3008 43.2812 17.1211 42.7891C18.082 42.2266 18.5625 40.6914 18.5625 38.1836V15.4375C18.5625 12.9297 18.082 11.3945 17.1211 10.832C16.3008 10.3398 14.6719 10.0938 12.2344 10.0938C11.6953 10.0938 11.0977 10.1055 10.4414 10.1289V43.4922Z" fill="white"/>
<path d="M60.9244 10.3398L45.1392 9.39062V28.3047H60.9244V37.0234L45.1392 36.0742V44.1953L60.9244 43.2461V51.9648H45.1392L34.8384 52V37.0234L31.0064 28.3047H34.8384V1.62109H60.9244V10.3398Z" fill="white"/>
<path d="M98.6808 1.62109H111.267V52H100.931V12.2031L94.2511 19.5508V52H83.9152V19.5508L77.2355 12.2031V52H66.9347V1.62109H79.4855L89.0831 11.0781L98.6808 1.62109Z" fill="white"/>
<path d="M145.261 9.17969C145.355 9.50781 145.437 9.97656 145.508 10.5859C145.601 11.1719 145.648 11.6523 145.648 12.0273V41.3828C145.648 43.4922 145.156 45.4141 144.172 47.1484C143.187 48.8594 141.769 50.2305 139.918 51.2617C138.09 52.293 135.863 52.8086 133.238 52.8086H129.758C127.156 52.8086 124.929 52.293 123.078 51.2617C121.226 50.2305 119.808 48.8594 118.824 47.1484C117.863 45.4141 117.382 43.4922 117.382 41.3828V12.2383C117.382 10.1289 117.863 8.21875 118.824 6.50781C119.808 4.77344 121.226 3.39062 123.078 2.35938C124.929 1.32812 127.156 0.8125 129.758 0.8125H133.238C136.496 0.8125 139.156 1.59766 141.218 3.16797C143.281 4.71484 144.629 6.71875 145.261 9.17969ZM135.312 17.793C135.312 15.5898 135.254 13.8789 135.136 12.6602C135.019 11.4414 134.691 10.5977 134.152 10.1289C133.636 9.63672 132.758 9.39062 131.515 9.39062C130.273 9.39062 129.383 9.63672 128.843 10.1289C128.304 10.5977 127.976 11.4414 127.859 12.6602C127.742 13.8789 127.683 15.5898 127.683 17.793V35.8281C127.683 38.0312 127.742 39.7422 127.859 40.9609C127.976 42.1797 128.293 43.0352 128.808 43.5273C129.347 43.9961 130.25 44.2305 131.515 44.2305C132.781 44.2305 133.672 43.9961 134.187 43.5273C134.726 43.0352 135.043 42.1797 135.136 40.9609C135.254 39.7422 135.312 38.0312 135.312 35.8281V17.793Z" fill="white"/>
<path d="M175.037 32.3828L176.268 52H152.08V1.62109H162.381V44.2305H162.451L166.916 43.9141L166.811 33.0156L175.037 32.3828Z" fill="white"/>
<path d="M205.762 10.3398L189.977 9.39062V28.3047H205.762V37.0234L189.977 36.0742V44.1953L205.762 43.2461V51.9648H189.977L179.677 52V37.0234L175.845 28.3047H179.677V1.62109H205.762V10.3398Z" fill="white"/>
<path d="M218.277 39.9414L224.745 46.4102L218.277 52.9141L211.773 46.4102L218.277 39.9414Z" fill="white"/>
<path d="M249.67 8.65234L244.467 8.44141V44.6523L249.67 44.7578V52H230.439L227.381 45.4609L234.131 44.9688V8.44141L230.439 8.61719L227.381 1.65625L249.67 1.62109V8.65234Z" fill="white"/>
<path d="M282.68 9.17969C282.774 9.50781 282.856 9.97656 282.926 10.5859C283.02 11.1719 283.067 11.6523 283.067 12.0273V41.3828C283.067 43.4922 282.575 45.4141 281.59 47.1484C280.606 48.8594 279.188 50.2305 277.336 51.2617C275.508 52.293 273.282 52.8086 270.657 52.8086H267.176C264.575 52.8086 262.348 52.293 260.497 51.2617C258.645 50.2305 257.227 48.8594 256.243 47.1484C255.282 45.4141 254.801 43.4922 254.801 41.3828V12.2383C254.801 10.1289 255.282 8.21875 256.243 6.50781C257.227 4.77344 258.645 3.39062 260.497 2.35938C262.348 1.32812 264.575 0.8125 267.176 0.8125H270.657C273.915 0.8125 276.575 1.59766 278.637 3.16797C280.7 4.71484 282.047 6.71875 282.68 9.17969ZM272.731 17.793C272.731 15.5898 272.672 13.8789 272.555 12.6602C272.438 11.4414 272.11 10.5977 271.571 10.1289C271.055 9.63672 270.176 9.39062 268.934 9.39062C267.692 9.39062 266.801 9.63672 266.262 10.1289C265.723 10.5977 265.395 11.4414 265.278 12.6602C265.161 13.8789 265.102 15.5898 265.102 17.793V35.8281C265.102 38.0312 265.161 39.7422 265.278 40.9609C265.395 42.1797 265.711 43.0352 266.227 43.5273C266.766 43.9961 267.668 44.2305 268.934 44.2305C270.2 44.2305 271.09 43.9961 271.606 43.5273C272.145 43.0352 272.461 42.1797 272.555 40.9609C272.672 39.7422 272.731 38.0312 272.731 35.8281V17.793Z" fill="white"/>
<path d="M46.02 92.2C45.3267 92.2 44.6733 92.1933 44.06 92.18C43.4467 92.1667 42.8533 92.1467 42.28 92.12C41.72 92.0933 41.16 92.06 40.6 92.02V78C41.2267 77.9467 41.82 77.9067 42.38 77.88C42.9533 77.8533 43.52 77.8333 44.08 77.82C44.64 77.8067 45.2333 77.8 45.86 77.8C47.5 77.8 48.8267 78.0533 49.84 78.56C50.8533 79.0533 51.5867 79.8333 52.04 80.9C52.5067 81.9533 52.74 83.3267 52.74 85.02C52.74 86.6733 52.4933 88.0333 52 89.1C51.5067 90.1533 50.76 90.9333 49.76 91.44C48.7733 91.9467 47.5267 92.2 46.02 92.2ZM46.28 89.54C46.9333 89.54 47.4733 89.3933 47.9 89.1C48.34 88.7933 48.6733 88.3133 48.9 87.66C49.1267 86.9933 49.24 86.12 49.24 85.04C49.24 83.88 49.1267 82.9733 48.9 82.32C48.6867 81.6667 48.3533 81.2 47.9 80.92C47.46 80.6267 46.8867 80.48 46.18 80.48C45.94 80.48 45.6867 80.4867 45.42 80.5C45.1667 80.5 44.9133 80.5067 44.66 80.52C44.42 80.5333 44.2 80.5467 44 80.56V89.46C44.1867 89.46 44.3733 89.4667 44.56 89.48C44.7467 89.4933 44.9333 89.5067 45.12 89.52C45.3067 89.52 45.4933 89.5267 45.68 89.54C45.8667 89.54 46.0667 89.54 46.28 89.54Z" fill="white"/>
<path d="M59.5491 92.2C58.6957 92.2 57.9424 92.1 57.2891 91.9C56.6357 91.6867 56.0757 91.3667 55.6091 90.94C55.1557 90.5 54.8091 89.94 54.5691 89.26C54.3291 88.5667 54.2091 87.7467 54.2091 86.8C54.2091 85.72 54.3424 84.8067 54.6091 84.06C54.8891 83.3133 55.2691 82.7067 55.7491 82.24C56.2424 81.7733 56.8224 81.44 57.4891 81.24C58.1557 81.0267 58.8824 80.92 59.6691 80.92C61.2691 80.92 62.4424 81.3133 63.1891 82.1C63.9491 82.8867 64.3291 84.1667 64.3291 85.94C64.3291 86.0733 64.3224 86.2467 64.3091 86.46C64.3091 86.66 64.3024 86.86 64.2891 87.06C63.9557 87.0867 63.5491 87.12 63.0691 87.16C62.5891 87.2 62.0557 87.24 61.4691 87.28C60.8824 87.32 60.2624 87.3533 59.6091 87.38C58.9557 87.4067 58.2891 87.4267 57.6091 87.44C57.5957 87.48 57.5891 87.52 57.5891 87.56C57.5891 87.6 57.5891 87.6467 57.5891 87.7C57.5891 88.14 57.6757 88.5067 57.8491 88.8C58.0357 89.08 58.3157 89.2933 58.6891 89.44C59.0624 89.5733 59.5491 89.64 60.1491 89.64C60.5224 89.64 60.9157 89.62 61.3291 89.58C61.7424 89.54 62.1624 89.4867 62.5891 89.42C63.0157 89.34 63.4424 89.2533 63.8691 89.16L64.2491 91.52C63.7824 91.6667 63.3024 91.7933 62.8091 91.9C62.3157 92.0067 61.8024 92.08 61.2691 92.12C60.7357 92.1733 60.1624 92.2 59.5491 92.2ZM57.6291 85.5C57.9757 85.5 58.3224 85.4933 58.6691 85.48C59.0157 85.4667 59.3424 85.4533 59.6491 85.44C59.9557 85.4133 60.2291 85.3933 60.4691 85.38C60.7091 85.3667 60.9091 85.36 61.0691 85.36C61.0557 84.8267 60.9891 84.4067 60.8691 84.1C60.7491 83.78 60.5757 83.5533 60.3491 83.42C60.1224 83.2867 59.8357 83.22 59.4891 83.22C59.2491 83.22 59.0291 83.2533 58.8291 83.32C58.6291 83.3867 58.4424 83.5067 58.2691 83.68C58.1091 83.84 57.9691 84.0733 57.8491 84.38C57.7424 84.6733 57.6691 85.0467 57.6291 85.5Z" fill="white"/>
<path d="M66.9623 92V84.16H65.4623V81.98L66.9623 81.78V81.52C66.9623 80.56 67.1823 79.7467 67.6223 79.08C68.0623 78.4 68.6957 77.8867 69.5223 77.54C70.3623 77.18 71.3757 77 72.5623 77C73.0157 77 73.4957 77.0267 74.0023 77.08C74.509 77.1333 75.0157 77.2133 75.5223 77.32C76.0423 77.4133 76.5357 77.5333 77.0023 77.68L76.2423 80.04C75.989 79.96 75.7157 79.8933 75.4223 79.84C75.1423 79.7733 74.849 79.72 74.5423 79.68C74.249 79.64 73.9557 79.6067 73.6623 79.58C73.3823 79.5533 73.109 79.54 72.8423 79.54C71.9623 79.54 71.2957 79.7133 70.8423 80.06C70.4023 80.4067 70.1823 80.94 70.1823 81.66V81.78H76.6423V92H73.3823V84.16H70.1823V92H66.9623Z" fill="white"/>
<path d="M84.8758 92V78H88.3958L91.7758 84.58L95.1958 78H98.5358V92H95.4558V82.96L92.4758 88.7H90.8758L87.9558 83.02V92H84.8758Z" fill="white"/>
<path d="M100.418 86.54C100.418 85.66 100.505 84.8733 100.678 84.18C100.852 83.4867 101.138 82.9 101.538 82.42C101.938 81.9267 102.478 81.5533 103.158 81.3C103.838 81.0467 104.685 80.92 105.698 80.92C106.712 80.92 107.558 81.0467 108.238 81.3C108.918 81.5533 109.458 81.9267 109.858 82.42C110.258 82.9 110.545 83.4867 110.718 84.18C110.892 84.8733 110.978 85.66 110.978 86.54C110.978 87.4333 110.885 88.2333 110.698 88.94C110.512 89.6467 110.212 90.24 109.798 90.72C109.385 91.2 108.838 91.5667 108.158 91.82C107.492 92.0733 106.672 92.2 105.698 92.2C104.725 92.2 103.898 92.0733 103.218 91.82C102.552 91.5667 102.012 91.2 101.598 90.72C101.185 90.24 100.885 89.6467 100.698 88.94C100.512 88.2333 100.418 87.4333 100.418 86.54ZM103.798 86.54C103.798 87.34 103.858 87.9733 103.978 88.44C104.112 88.9067 104.318 89.24 104.598 89.44C104.878 89.6267 105.245 89.72 105.698 89.72C106.165 89.72 106.532 89.6267 106.798 89.44C107.078 89.24 107.285 88.9067 107.418 88.44C107.552 87.9733 107.618 87.34 107.618 86.54C107.618 85.74 107.558 85.1133 107.438 84.66C107.318 84.2067 107.118 83.8867 106.838 83.7C106.558 83.5 106.178 83.4 105.698 83.4C105.218 83.4 104.838 83.5 104.558 83.7C104.292 83.8867 104.098 84.2067 103.978 84.66C103.858 85.1133 103.798 85.74 103.798 86.54Z" fill="white"/>
<path d="M112.82 92V81.12H115.78V82.06C116.22 81.7933 116.633 81.58 117.02 81.42C117.42 81.2467 117.807 81.12 118.18 81.04C118.567 80.96 118.973 80.92 119.4 80.92C120.107 80.92 120.693 81.0533 121.16 81.32C121.64 81.5733 121.993 81.9333 122.22 82.4C122.46 82.8533 122.58 83.4 122.58 84.04V92H119.3V85.12C119.3 84.6133 119.187 84.2467 118.96 84.02C118.733 83.78 118.413 83.66 118 83.66C117.787 83.66 117.573 83.6867 117.36 83.74C117.16 83.78 116.953 83.84 116.74 83.92C116.54 84 116.327 84.0933 116.1 84.2V92H112.82Z" fill="white"/>
<path d="M124.282 91.58L124.642 89.22C124.882 89.3 125.155 89.38 125.462 89.46C125.782 89.5267 126.109 89.5867 126.442 89.64C126.775 89.6933 127.102 89.7333 127.422 89.76C127.755 89.7867 128.062 89.8 128.342 89.8C128.862 89.8 129.242 89.7267 129.482 89.58C129.735 89.42 129.862 89.2 129.862 88.92C129.862 88.7333 129.795 88.5867 129.662 88.48C129.542 88.36 129.362 88.2533 129.122 88.16C128.882 88.0667 128.595 87.9867 128.262 87.92C127.929 87.84 127.562 87.7467 127.162 87.64C126.709 87.5467 126.315 87.4133 125.982 87.24C125.649 87.0533 125.362 86.8333 125.122 86.58C124.895 86.3133 124.722 86.0133 124.602 85.68C124.495 85.3333 124.442 84.9467 124.442 84.52C124.442 83.32 124.822 82.42 125.582 81.82C126.342 81.22 127.469 80.92 128.962 80.92C129.415 80.92 129.849 80.9467 130.262 81C130.675 81.04 131.069 81.1 131.442 81.18C131.815 81.26 132.155 81.36 132.462 81.48L132.062 83.88C131.769 83.7733 131.462 83.6867 131.142 83.62C130.835 83.5533 130.502 83.5 130.142 83.46C129.795 83.42 129.402 83.4 128.962 83.4C128.482 83.4 128.122 83.4667 127.882 83.6C127.642 83.7333 127.522 83.94 127.522 84.22C127.522 84.3933 127.569 84.5333 127.662 84.64C127.755 84.7333 127.895 84.82 128.082 84.9C128.269 84.9667 128.495 85.0333 128.762 85.1C129.042 85.1533 129.362 85.22 129.722 85.3C130.202 85.3933 130.642 85.52 131.042 85.68C131.455 85.84 131.809 86.0467 132.102 86.3C132.395 86.54 132.622 86.8467 132.782 87.22C132.955 87.5933 133.042 88.0533 133.042 88.6C133.042 89.1333 132.955 89.6 132.782 90C132.622 90.4 132.395 90.74 132.102 91.02C131.809 91.3 131.462 91.5267 131.062 91.7C130.675 91.8733 130.242 92 129.762 92.08C129.282 92.16 128.789 92.2 128.282 92.2C127.802 92.2 127.335 92.1733 126.882 92.12C126.429 92.08 125.989 92.02 125.562 91.94C125.135 91.8467 124.709 91.7267 124.282 91.58Z" fill="white"/>
<path d="M138.559 92.2C137.839 92.2 137.232 92.0667 136.739 91.8C136.246 91.52 135.872 91.0933 135.619 90.52C135.379 89.9333 135.259 89.1733 135.259 88.24V83.5H133.699V81.32L135.259 81.12L135.639 78.8H138.519V81.12H141.259V83.5H138.519V87.98C138.519 88.5133 138.612 88.8933 138.799 89.12C138.999 89.3333 139.306 89.44 139.719 89.44C139.946 89.44 140.186 89.42 140.439 89.38C140.692 89.3267 140.966 89.2667 141.259 89.2L141.699 91.68C141.139 91.8667 140.599 92 140.079 92.08C139.559 92.16 139.052 92.2 138.559 92.2Z" fill="white"/>
<path d="M147.808 92.2C146.954 92.2 146.201 92.1 145.548 91.9C144.894 91.6867 144.334 91.3667 143.868 90.94C143.414 90.5 143.068 89.94 142.828 89.26C142.588 88.5667 142.468 87.7467 142.468 86.8C142.468 85.72 142.601 84.8067 142.868 84.06C143.148 83.3133 143.528 82.7067 144.008 82.24C144.501 81.7733 145.081 81.44 145.748 81.24C146.414 81.0267 147.141 80.92 147.928 80.92C149.528 80.92 150.701 81.3133 151.448 82.1C152.208 82.8867 152.588 84.1667 152.588 85.94C152.588 86.0733 152.581 86.2467 152.568 86.46C152.568 86.66 152.561 86.86 152.548 87.06C152.214 87.0867 151.808 87.12 151.328 87.16C150.848 87.2 150.314 87.24 149.728 87.28C149.141 87.32 148.521 87.3533 147.868 87.38C147.214 87.4067 146.548 87.4267 145.868 87.44C145.854 87.48 145.848 87.52 145.848 87.56C145.848 87.6 145.848 87.6467 145.848 87.7C145.848 88.14 145.934 88.5067 146.108 88.8C146.294 89.08 146.574 89.2933 146.948 89.44C147.321 89.5733 147.808 89.64 148.408 89.64C148.781 89.64 149.174 89.62 149.588 89.58C150.001 89.54 150.421 89.4867 150.848 89.42C151.274 89.34 151.701 89.2533 152.128 89.16L152.508 91.52C152.041 91.6667 151.561 91.7933 151.068 91.9C150.574 92.0067 150.061 92.08 149.528 92.12C148.994 92.1733 148.421 92.2 147.808 92.2ZM145.888 85.5C146.234 85.5 146.581 85.4933 146.928 85.48C147.274 85.4667 147.601 85.4533 147.908 85.44C148.214 85.4133 148.488 85.3933 148.728 85.38C148.968 85.3667 149.168 85.36 149.328 85.36C149.314 84.8267 149.248 84.4067 149.128 84.1C149.008 83.78 148.834 83.5533 148.608 83.42C148.381 83.2867 148.094 83.22 147.748 83.22C147.508 83.22 147.288 83.2533 147.088 83.32C146.888 83.3867 146.701 83.5067 146.528 83.68C146.368 83.84 146.228 84.0733 146.108 84.38C146.001 84.6733 145.928 85.0467 145.888 85.5Z" fill="white"/>
<path d="M157.419 81.12V82.38C157.792 82.0333 158.132 81.7533 158.439 81.54C158.746 81.3267 159.059 81.1733 159.379 81.08C159.699 80.9733 160.052 80.92 160.439 80.92C160.652 80.92 160.879 80.94 161.119 80.98C161.359 81.0067 161.599 81.06 161.839 81.14L161.319 84.1C161.079 84.0467 160.839 84.0067 160.599 83.98C160.359 83.94 160.139 83.92 159.939 83.92C159.592 83.92 159.239 83.98 158.879 84.1C158.519 84.2067 158.132 84.4067 157.719 84.7V92H154.459V81.12H157.419Z" fill="white"/>
<path d="M169.13 92V78H172.53V89.04H178.81V92H169.13Z" fill="white"/>
<path d="M185.247 92.2C184.394 92.2 183.641 92.1 182.988 91.9C182.334 91.6867 181.774 91.3667 181.307 90.94C180.854 90.5 180.508 89.94 180.268 89.26C180.027 88.5667 179.908 87.7467 179.908 86.8C179.908 85.72 180.041 84.8067 180.307 84.06C180.587 83.3133 180.967 82.7067 181.447 82.24C181.941 81.7733 182.521 81.44 183.188 81.24C183.854 81.0267 184.581 80.92 185.367 80.92C186.967 80.92 188.141 81.3133 188.887 82.1C189.647 82.8867 190.027 84.1667 190.027 85.94C190.027 86.0733 190.021 86.2467 190.007 86.46C190.007 86.66 190.001 86.86 189.988 87.06C189.654 87.0867 189.247 87.12 188.768 87.16C188.288 87.2 187.754 87.24 187.167 87.28C186.581 87.32 185.961 87.3533 185.307 87.38C184.654 87.4067 183.987 87.4267 183.307 87.44C183.294 87.48 183.287 87.52 183.287 87.56C183.287 87.6 183.287 87.6467 183.287 87.7C183.287 88.14 183.374 88.5067 183.548 88.8C183.734 89.08 184.014 89.2933 184.387 89.44C184.761 89.5733 185.247 89.64 185.848 89.64C186.221 89.64 186.614 89.62 187.027 89.58C187.441 89.54 187.861 89.4867 188.287 89.42C188.714 89.34 189.141 89.2533 189.567 89.16L189.947 91.52C189.481 91.6667 189.001 91.7933 188.507 91.9C188.014 92.0067 187.501 92.08 186.967 92.12C186.434 92.1733 185.861 92.2 185.247 92.2ZM183.327 85.5C183.674 85.5 184.021 85.4933 184.367 85.48C184.714 85.4667 185.041 85.4533 185.348 85.44C185.654 85.4133 185.927 85.3933 186.167 85.38C186.408 85.3667 186.607 85.36 186.768 85.36C186.754 84.8267 186.688 84.4067 186.568 84.1C186.448 83.78 186.274 83.5533 186.048 83.42C185.821 83.2867 185.534 83.22 185.188 83.22C184.947 83.22 184.727 83.2533 184.527 83.32C184.327 83.3867 184.141 83.5067 183.967 83.68C183.807 83.84 183.667 84.0733 183.548 84.38C183.441 84.6733 183.367 85.0467 183.327 85.5Z" fill="white"/>
<path d="M196.021 96.4C194.407 96.4 193.187 96.1667 192.361 95.7C191.547 95.2467 191.141 94.56 191.141 93.64C191.141 93.28 191.201 92.9467 191.321 92.64C191.454 92.3467 191.647 92.08 191.901 91.84C192.167 91.6 192.494 91.3933 192.881 91.22L194.561 91.84C194.374 91.9333 194.221 92.0267 194.101 92.12C193.981 92.2267 193.887 92.34 193.821 92.46C193.767 92.5933 193.741 92.7467 193.741 92.92C193.741 93.1867 193.821 93.4067 193.981 93.58C194.141 93.7533 194.401 93.88 194.761 93.96C195.134 94.0533 195.627 94.1 196.241 94.1C196.841 94.1 197.347 94.0467 197.761 93.94C198.174 93.8467 198.487 93.7133 198.701 93.54C198.914 93.3667 199.021 93.1533 199.021 92.9C199.021 92.7 198.974 92.5467 198.881 92.44C198.801 92.3333 198.654 92.2533 198.441 92.2C198.227 92.1467 197.921 92.12 197.521 92.12H195.341C194.581 92.12 193.921 92.0333 193.361 91.86C192.801 91.6867 192.367 91.42 192.061 91.06C191.767 90.7 191.621 90.2467 191.621 89.7C191.621 89.1267 191.761 88.6533 192.041 88.28C192.334 87.8933 192.734 87.5667 193.241 87.3L194.921 87.78C194.654 87.9133 194.447 88.06 194.301 88.22C194.167 88.3667 194.101 88.56 194.101 88.8C194.101 89.04 194.194 89.2267 194.381 89.36C194.567 89.48 194.854 89.54 195.241 89.54H198.601C199.721 89.54 200.581 89.8 201.181 90.32C201.781 90.84 202.081 91.5667 202.081 92.5C202.081 93.3267 201.847 94.0267 201.381 94.6C200.927 95.1867 200.247 95.6333 199.341 95.94C198.447 96.2467 197.341 96.4 196.021 96.4ZM196.341 88.34C194.807 88.34 193.647 88.0267 192.861 87.4C192.087 86.7733 191.701 85.8533 191.701 84.64C191.701 83.4 192.087 82.4733 192.861 81.86C193.647 81.2333 194.807 80.92 196.341 80.92C197.874 80.92 199.034 81.2333 199.821 81.86C200.607 82.4733 201.001 83.4 201.001 84.64C201.001 85.8533 200.607 86.7733 199.821 87.4C199.034 88.0267 197.874 88.34 196.341 88.34ZM196.341 86.26C196.861 86.26 197.247 86.14 197.501 85.9C197.754 85.66 197.881 85.24 197.881 84.64C197.881 84.0133 197.754 83.58 197.501 83.34C197.247 83.1 196.861 82.98 196.341 82.98C195.834 82.98 195.447 83.1 195.181 83.34C194.927 83.58 194.801 84.0133 194.801 84.64C194.801 85.24 194.927 85.66 195.181 85.9C195.447 86.14 195.834 86.26 196.341 86.26ZM200.261 83.52L199.021 81.84C199.221 81.3467 199.507 80.98 199.881 80.74C200.267 80.5 200.747 80.38 201.321 80.38C201.521 80.38 201.707 80.3933 201.881 80.42C202.054 80.4467 202.214 80.4867 202.361 80.54L201.981 83.02C201.874 82.9933 201.761 82.9733 201.641 82.96C201.521 82.9333 201.394 82.92 201.261 82.92C201.047 82.92 200.854 82.9733 200.681 83.08C200.521 83.1733 200.381 83.32 200.261 83.52Z" fill="white"/>
<path d="M208.274 92.2C207.421 92.2 206.667 92.1 206.014 91.9C205.361 91.6867 204.801 91.3667 204.334 90.94C203.881 90.5 203.534 89.94 203.294 89.26C203.054 88.5667 202.934 87.7467 202.934 86.8C202.934 85.72 203.067 84.8067 203.334 84.06C203.614 83.3133 203.994 82.7067 204.474 82.24C204.967 81.7733 205.547 81.44 206.214 81.24C206.881 81.0267 207.607 80.92 208.394 80.92C209.994 80.92 211.167 81.3133 211.914 82.1C212.674 82.8867 213.054 84.1667 213.054 85.94C213.054 86.0733 213.047 86.2467 213.034 86.46C213.034 86.66 213.027 86.86 213.014 87.06C212.681 87.0867 212.274 87.12 211.794 87.16C211.314 87.2 210.781 87.24 210.194 87.28C209.607 87.32 208.987 87.3533 208.334 87.38C207.681 87.4067 207.014 87.4267 206.334 87.44C206.321 87.48 206.314 87.52 206.314 87.56C206.314 87.6 206.314 87.6467 206.314 87.7C206.314 88.14 206.401 88.5067 206.574 88.8C206.761 89.08 207.041 89.2933 207.414 89.44C207.787 89.5733 208.274 89.64 208.874 89.64C209.247 89.64 209.641 89.62 210.054 89.58C210.467 89.54 210.887 89.4867 211.314 89.42C211.741 89.34 212.167 89.2533 212.594 89.16L212.974 91.52C212.507 91.6667 212.027 91.7933 211.534 91.9C211.041 92.0067 210.527 92.08 209.994 92.12C209.461 92.1733 208.887 92.2 208.274 92.2ZM206.354 85.5C206.701 85.5 207.047 85.4933 207.394 85.48C207.741 85.4667 208.067 85.4533 208.374 85.44C208.681 85.4133 208.954 85.3933 209.194 85.38C209.434 85.3667 209.634 85.36 209.794 85.36C209.781 84.8267 209.714 84.4067 209.594 84.1C209.474 83.78 209.301 83.5533 209.074 83.42C208.847 83.2867 208.561 83.22 208.214 83.22C207.974 83.22 207.754 83.2533 207.554 83.32C207.354 83.3867 207.167 83.5067 206.994 83.68C206.834 83.84 206.694 84.0733 206.574 84.38C206.467 84.6733 206.394 85.0467 206.354 85.5Z" fill="white"/>
<path d="M214.925 92V81.12H217.885V82.06C218.325 81.7933 218.739 81.58 219.125 81.42C219.525 81.2467 219.912 81.12 220.285 81.04C220.672 80.96 221.079 80.92 221.505 80.92C222.212 80.92 222.799 81.0533 223.265 81.32C223.745 81.5733 224.099 81.9333 224.325 82.4C224.565 82.8533 224.685 83.4 224.685 84.04V92H221.405V85.12C221.405 84.6133 221.292 84.2467 221.065 84.02C220.839 83.78 220.519 83.66 220.105 83.66C219.892 83.66 219.679 83.6867 219.465 83.74C219.265 83.78 219.059 83.84 218.845 83.92C218.645 84 218.432 84.0933 218.205 84.2V92H214.925Z" fill="white"/>
<path d="M233.887 92.02L233.508 91.2C232.974 91.5333 232.441 91.7867 231.908 91.96C231.374 92.12 230.814 92.2 230.228 92.2C229.041 92.2 228.121 91.7333 227.467 90.8C226.827 89.8667 226.508 88.52 226.508 86.76C226.508 85.44 226.694 84.3533 227.068 83.5C227.454 82.6333 228.034 81.9867 228.808 81.56C229.581 81.1333 230.561 80.92 231.747 80.92C232.014 80.92 232.294 80.9333 232.588 80.96C232.894 80.9733 233.188 81.0067 233.467 81.06V77.2H236.768V92.02H233.887ZM233.467 88.92V83.52C233.201 83.44 232.941 83.3867 232.688 83.36C232.447 83.32 232.208 83.3 231.967 83.3C231.501 83.3 231.114 83.4 230.808 83.6C230.501 83.8 230.274 84.1267 230.128 84.58C229.981 85.0333 229.908 85.6533 229.908 86.44C229.908 87.16 229.968 87.7467 230.088 88.2C230.221 88.64 230.408 88.9667 230.648 89.18C230.888 89.38 231.181 89.48 231.527 89.48C231.727 89.48 231.928 89.46 232.128 89.42C232.341 89.38 232.554 89.32 232.768 89.24C232.994 89.1467 233.227 89.04 233.467 88.92Z" fill="white"/>
<path d="M238.487 91.58L238.847 89.22C239.087 89.3 239.36 89.38 239.667 89.46C239.987 89.5267 240.313 89.5867 240.647 89.64C240.98 89.6933 241.307 89.7333 241.627 89.76C241.96 89.7867 242.267 89.8 242.547 89.8C243.067 89.8 243.447 89.7267 243.687 89.58C243.94 89.42 244.067 89.2 244.067 88.92C244.067 88.7333 244 88.5867 243.867 88.48C243.747 88.36 243.567 88.2533 243.327 88.16C243.087 88.0667 242.8 87.9867 242.467 87.92C242.133 87.84 241.767 87.7467 241.367 87.64C240.913 87.5467 240.52 87.4133 240.187 87.24C239.853 87.0533 239.567 86.8333 239.327 86.58C239.1 86.3133 238.927 86.0133 238.807 85.68C238.7 85.3333 238.647 84.9467 238.647 84.52C238.647 83.32 239.027 82.42 239.787 81.82C240.547 81.22 241.673 80.92 243.167 80.92C243.62 80.92 244.053 80.9467 244.467 81C244.88 81.04 245.273 81.1 245.647 81.18C246.02 81.26 246.36 81.36 246.667 81.48L246.267 83.88C245.973 83.7733 245.667 83.6867 245.347 83.62C245.04 83.5533 244.707 83.5 244.347 83.46C244 83.42 243.607 83.4 243.167 83.4C242.687 83.4 242.327 83.4667 242.087 83.6C241.847 83.7333 241.727 83.94 241.727 84.22C241.727 84.3933 241.773 84.5333 241.867 84.64C241.96 84.7333 242.1 84.82 242.287 84.9C242.473 84.9667 242.7 85.0333 242.967 85.1C243.247 85.1533 243.567 85.22 243.927 85.3C244.407 85.3933 244.847 85.52 245.247 85.68C245.66 85.84 246.013 86.0467 246.307 86.3C246.6 86.54 246.827 86.8467 246.987 87.22C247.16 87.5933 247.247 88.0533 247.247 88.6C247.247 89.1333 247.16 89.6 246.987 90C246.827 90.4 246.6 90.74 246.307 91.02C246.013 91.3 245.667 91.5267 245.267 91.7C244.88 91.8733 244.447 92 243.967 92.08C243.487 92.16 242.993 92.2 242.487 92.2C242.007 92.2 241.54 92.1733 241.087 92.12C240.633 92.08 240.193 92.02 239.767 91.94C239.34 91.8467 238.913 91.7267 238.487 91.58Z" fill="white"/>
</svg>
