<svg width="32" height="32" viewBox="0 0 32 32" fill="none" xmlns="http://www.w3.org/2000/svg">
<path d="M16.0003 10.6665C14.5858 10.6665 13.2293 11.2284 12.2291 12.2286C11.2289 13.2288 10.667 14.5853 10.667 15.9998C10.667 17.4143 11.2289 18.7709 12.2291 19.7711C13.2293 20.7713 14.5858 21.3332 16.0003 21.3332C17.4148 21.3332 18.7714 20.7713 19.7716 19.7711C20.7718 18.7709 21.3337 17.4143 21.3337 15.9998C21.3337 14.5853 20.7718 13.2288 19.7716 12.2286C18.7714 11.2284 17.4148 10.6665 16.0003 10.6665Z" fill="white" fill-opacity="0.8"/>
<path fill-rule="evenodd" clip-rule="evenodd" d="M9.6 0C7.05392 0 4.61212 1.01143 2.81178 2.81178C1.01143 4.61212 0 7.05392 0 9.6L0 22.4C0 24.9461 1.01143 27.3879 2.81178 29.1882C4.61212 30.9886 7.05392 32 9.6 32H22.4C24.9461 32 27.3879 30.9886 29.1882 29.1882C30.9886 27.3879 32 24.9461 32 22.4V9.6C32 7.05392 30.9886 4.61212 29.1882 2.81178C27.3879 1.01143 24.9461 0 22.4 0L9.6 0ZM8.53333 16C8.53333 14.0197 9.32 12.1205 10.7203 10.7203C12.1205 9.32 14.0197 8.53333 16 8.53333C17.9803 8.53333 19.8795 9.32 21.2797 10.7203C22.68 12.1205 23.4667 14.0197 23.4667 16C23.4667 17.9803 22.68 19.8795 21.2797 21.2797C19.8795 22.68 17.9803 23.4667 16 23.4667C14.0197 23.4667 12.1205 22.68 10.7203 21.2797C9.32 19.8795 8.53333 17.9803 8.53333 16ZM23.4667 8.53333H25.6V6.4H23.4667V8.53333Z" fill="white" fill-opacity="0.8"/>
</svg>
