<svg width="1424" height="877" viewBox="0 0 1424 877" fill="none" xmlns="http://www.w3.org/2000/svg">
<g clip-path="url(#clip0_512_154)">
<g opacity="0.1">
<path d="M311.146 -3.94214C503.002 67.2741 289.812 184.632 413.075 332.424C526.038 467.867 812.143 339.329 771.581 637.991C743.811 842.468 788.733 936.258 938.856 1030.51" stroke="#1B4DFF" stroke-width="1.18846"/>
<path d="M322.578 -11.7115C514.435 59.5047 301.245 176.863 424.508 324.655C537.471 460.098 823.575 331.559 783.014 630.221C755.244 834.699 800.166 928.489 950.289 1022.74" stroke="#1B4DFF" stroke-width="1.18846"/>
<path d="M334.012 -19.4808C525.868 51.7354 312.679 169.094 435.941 316.886C548.904 452.329 835.009 323.79 794.448 622.452C766.677 826.93 811.599 920.719 961.722 1014.97" stroke="#1B4DFF" stroke-width="1.18846"/>
<path d="M345.444 -27.2501C537.301 43.9662 324.111 161.324 447.374 309.116C560.337 444.559 846.441 316.021 805.88 614.683C778.11 819.16 823.032 912.95 973.155 1007.2" stroke="#1B4DFF" stroke-width="1.18846"/>
<path d="M356.878 -35.0197C548.735 36.1966 335.545 153.555 458.807 301.347C571.771 436.79 857.875 308.251 817.314 606.913C789.544 811.391 834.466 905.181 984.589 999.431" stroke="#1B4DFF" stroke-width="1.18846"/>
<path d="M368.311 -42.7882C560.167 28.4281 346.977 145.786 470.24 293.578C583.203 429.021 869.308 300.482 828.746 599.144C800.976 803.622 845.898 897.412 996.021 991.663" stroke="#1B4DFF" stroke-width="1.18846"/>
<path d="M379.74 -50.5597C571.597 20.6566 358.407 138.015 481.67 285.807C594.633 421.25 880.737 292.711 840.176 591.373C812.406 795.851 857.328 889.641 1007.45 983.891" stroke="#1B4DFF" stroke-width="1.18846"/>
<path d="M391.173 -58.3284C583.03 12.8879 369.84 130.246 493.102 278.038C606.065 413.481 892.17 284.942 851.609 583.604C823.839 788.082 868.761 881.872 1018.88 976.122" stroke="#1B4DFF" stroke-width="1.18846"/>
<path d="M402.61 -66.0968C594.467 5.11948 381.277 122.478 504.54 270.27C617.503 405.713 903.607 277.174 863.046 575.836C835.276 780.314 880.198 874.104 1030.32 968.354" stroke="#1B4DFF" stroke-width="1.18846"/>
<path d="M414.043 -73.8655C605.9 -2.6492 392.71 114.709 515.972 262.501C628.936 397.944 915.04 269.405 874.479 568.067C846.709 772.545 891.631 866.335 1041.75 960.585" stroke="#1B4DFF" stroke-width="1.18846"/>
<path d="M425.473 -81.637C617.329 -10.4207 404.14 106.937 527.402 254.729C640.365 390.172 926.47 261.634 885.909 560.296C858.138 764.773 903.06 858.563 1053.18 952.814" stroke="#1B4DFF" stroke-width="1.18846"/>
<path d="M436.905 -89.4062C628.762 -18.19 415.572 99.1681 538.835 246.96C651.798 382.403 937.902 253.864 897.341 552.526C869.571 757.004 914.493 850.794 1064.62 945.045" stroke="#1B4DFF" stroke-width="1.18846"/>
<path d="M448.339 -97.1758C640.196 -25.9595 427.006 91.3986 550.268 239.191C663.232 374.634 949.336 246.095 908.775 544.757C881.005 749.235 925.927 843.025 1076.05 937.275" stroke="#1B4DFF" stroke-width="1.18846"/>
<path d="M459.771 -104.945C651.628 -33.7288 438.438 83.6293 561.701 231.421C674.664 366.864 960.769 238.326 920.207 536.988C892.437 741.465 937.359 835.255 1087.48 929.506" stroke="#1B4DFF" stroke-width="1.18846"/>
<path d="M471.204 -112.714C663.061 -41.4973 449.871 75.8607 573.134 223.653C686.097 359.096 972.201 230.557 931.64 529.219C903.87 733.697 948.792 827.487 1098.91 921.737" stroke="#1B4DFF" stroke-width="1.18846"/>
<path d="M482.638 -120.483C674.494 -49.2668 461.305 68.0913 584.567 215.883C697.53 351.326 983.635 222.788 943.074 521.45C915.303 725.927 960.225 819.717 1110.35 913.968" stroke="#1B4DFF" stroke-width="1.18846"/>
<path d="M494.071 -128.253C685.928 -57.0366 472.738 60.3214 596.001 208.113C708.964 343.556 995.068 215.018 954.507 513.68C926.737 718.157 971.659 811.947 1121.78 906.198" stroke="#1B4DFF" stroke-width="1.18846"/>
<path d="M505.504 -136.022C697.361 -64.8058 484.171 52.5523 607.433 200.344C720.397 335.787 1006.5 207.249 965.94 505.911C938.17 710.388 983.092 804.178 1133.21 898.429" stroke="#1B4DFF" stroke-width="1.18846"/>
<path d="M516.938 -143.792C708.794 -72.5752 495.604 44.7828 618.867 192.575C731.83 328.018 1017.93 199.479 977.373 498.141C949.603 702.619 994.525 796.409 1144.65 890.659" stroke="#1B4DFF" stroke-width="1.18846"/>
<path d="M528.37 -151.56C720.227 -80.3439 507.037 37.0142 630.3 184.806C743.263 320.249 1029.37 191.711 988.806 490.372C961.036 694.85 1005.96 788.64 1156.08 882.891" stroke="#1B4DFF" stroke-width="1.18846"/>
</g>
</g>
<defs>
<clipPath id="clip0_512_154">
<rect width="1424" height="877" fill="white"/>
</clipPath>
</defs>
</svg>
